<svg width="338" height="54" fill="none" xmlns="http://www.w3.org/2000/svg"><g filter="url(#a)"><path d="M163.48 43.192c-.619 0-1.12-.192-1.504-.576-.363-.384-.544-.8853-.544-1.504v-18.72c0-.6187.171-1.0987.512-1.44.363-.3413.853-.512 1.472-.512h11.232c1.301 0 1.952.5547 1.952 1.664 0 1.088-.651 1.632-1.952 1.632h-9.152v6.144h8.512c1.301 0 1.952.5547 1.952 1.664 0 1.088-.651 1.632-1.952 1.632h-8.512v7.936c0 .6187-.181 1.12-.544 1.504-.363.384-.853.576-1.472.576Zm18.99 0c-.576 0-1.056-.16-1.44-.48-.362-.3413-.544-.8213-.544-1.44V22.168c0-.6187.182-1.088.544-1.408.384-.32.864-.48 1.44-.48s1.056.16 1.44.48c.384.32.576.7893.576 1.408v19.104c0 .6187-.192 1.0987-.576 1.44-.384.32-.864.48-1.44.48Zm13.277.064c-1.6 0-3.008-.3307-4.224-.992-1.194-.6613-2.122-1.6107-2.784-2.848-.661-1.2373-.992-2.6773-.992-4.32 0-1.6427.331-3.072.992-4.288.662-1.2373 1.59-2.1867 2.784-2.848 1.216-.6613 2.624-.992 4.224-.992s2.998.3307 4.192.992c1.216.6613 2.144 1.6107 2.784 2.848.662 1.216.992 2.6453.992 4.288s-.33 3.0827-.992 4.32c-.64 1.2373-1.568 2.1867-2.784 2.848-1.194.6613-2.592.992-4.192.992Zm-.032-3.104c1.302 0 2.294-.4267 2.976-1.28.683-.8533 1.024-2.112 1.024-3.776 0-1.6427-.341-2.8907-1.024-3.744-.682-.8747-1.664-1.312-2.944-1.312s-2.272.4373-2.976 1.312c-.682.8533-1.024 2.1013-1.024 3.744 0 1.664.342 2.9227 1.024 3.776.683.8533 1.664 1.28 2.944 1.28Zm20.039-13.12c.554-.0427.992.0747 1.312.352.32.2773.48.6933.48 1.248 0 .576-.139 1.0027-.416 1.28-.278.2773-.779.4587-1.504.544l-.96.096c-1.259.128-2.187.5547-2.784 1.28-.576.7253-.864 1.632-.864 2.72v6.72c0 .6187-.192 1.0987-.576 1.44-.384.32-.864.48-1.44.48s-1.056-.16-1.44-.48c-.363-.3413-.544-.8213-.544-1.44V28.888c0-.5973.181-1.056.544-1.376.384-.32.853-.48 1.408-.48.554 0 1.002.16 1.344.48.341.2987.512.736.512 1.312v1.28c.405-.9387 1.002-1.664 1.792-2.176.81-.512 1.706-.8 2.688-.864l.448-.032Zm15.585 11.68c.363 0 .651.1387.864.416.235.2773.352.6507.352 1.12 0 .6613-.395 1.216-1.184 1.664-.725.4053-1.547.736-2.464.992-.917.2347-1.792.352-2.624.352-2.517 0-4.512-.7253-5.984-2.176-1.472-1.4507-2.208-3.4347-2.208-5.952 0-1.6.32-3.0187.96-4.256.64-1.2373 1.536-2.1973 2.688-2.88 1.173-.6827 2.496-1.024 3.968-1.024 1.408 0 2.635.3093 3.68.928 1.045.6187 1.856 1.4933 2.432 2.624.576 1.1307.864 2.464.864 4 0 .9173-.405 1.376-1.216 1.376h-9.44c.128 1.472.544 2.56 1.248 3.264.704.6827 1.728 1.024 3.072 1.024.683 0 1.28-.0853 1.792-.256.533-.1707 1.131-.4053 1.792-.704.64-.3413 1.109-.512 1.408-.512Zm-5.536-8.928c-1.088 0-1.963.3413-2.624 1.024-.64.6827-1.024 1.664-1.152 2.944h7.232c-.043-1.3013-.363-2.2827-.96-2.944-.597-.6827-1.429-1.024-2.496-1.024Zm-2.368-4.992c-.299.448-.672.672-1.12.672-.341 0-.651-.128-.928-.384-.256-.256-.384-.5547-.384-.896 0-.2773.096-.5547.288-.832l2.816-3.808c.256-.32.501-.5547.736-.704s.523-.224.864-.224c.363 0 .661.0747.896.224s.469.3947.704.736l2.816 3.776c.192.256.288.5333.288.832 0 .3413-.139.64-.416.896-.256.256-.555.384-.896.384-.448 0-.821-.224-1.12-.672l-2.272-3.52-2.272 3.52Zm21.608 2.176c1.877 0 3.275.5333 4.192 1.6.917 1.0667 1.376 2.6773 1.376 4.832v7.872c0 .5973-.181 1.0667-.544 1.408-.341.3413-.821.512-1.44.512s-1.109-.1707-1.472-.512c-.363-.3413-.544-.8107-.544-1.408v-7.648c0-1.216-.235-2.1013-.704-2.656-.448-.5547-1.163-.832-2.144-.832-1.152 0-2.08.3627-2.784 1.088-.683.7253-1.024 1.696-1.024 2.912v7.136c0 .5973-.181 1.0667-.544 1.408-.363.3413-.853.512-1.472.512s-1.109-.1707-1.472-.512c-.341-.3413-.512-.8107-.512-1.408V28.888c0-.5547.181-1.0027.544-1.344.363-.3413.853-.512 1.472-.512.555 0 1.003.1707 1.344.512.363.32.544.7467.544 1.28v.864c.533-.8747 1.248-1.5467 2.144-2.016.896-.4693 1.909-.704 3.04-.704Zm16.575 16.288c-1.558 0-2.934-.3307-4.128-.992-1.174-.6613-2.08-1.6-2.72-2.816-.64-1.216-.96-2.6347-.96-4.256 0-1.6213.33-3.0507.992-4.288.682-1.2587 1.632-2.2293 2.848-2.912 1.216-.6827 2.613-1.024 4.192-1.024.832 0 1.664.1173 2.496.352.853.2347 1.6.5547 2.24.96.682.448 1.024 1.0133 1.024 1.696 0 .4693-.118.8533-.352 1.152-.214.2773-.502.416-.864.416-.235 0-.48-.0533-.736-.16s-.512-.2347-.768-.384c-.47-.2773-.918-.4907-1.344-.64-.427-.1707-.918-.256-1.472-.256-1.323 0-2.347.4373-3.072 1.312-.704.8533-1.056 2.0907-1.056 3.712 0 1.6.352 2.8373 1.056 3.712.725.8533 1.749 1.28 3.072 1.28.533 0 1.002-.0747 1.408-.224.426-.1707.896-.3947 1.408-.672.32-.192.597-.3307.832-.416.234-.1067.469-.16.704-.16.341 0 .629.1493.864.448.234.2987.352.672.352 1.12 0 .3627-.086.6827-.256.96-.15.256-.406.4907-.768.704-.662.4267-1.43.768-2.304 1.024-.875.2347-1.771.352-2.688.352Zm10.665-.064c-.576 0-1.056-.16-1.44-.48-.363-.3413-.544-.8213-.544-1.44V28.92c0-.6187.181-1.088.544-1.408.384-.32.864-.48 1.44-.48s1.056.16 1.44.48c.384.32.576.7893.576 1.408v12.352c0 .6187-.192 1.0987-.576 1.44-.384.32-.864.48-1.44.48Zm0-19.008c-.726 0-1.302-.192-1.728-.576-.427-.4053-.64-.928-.64-1.568s.213-1.152.64-1.536c.426-.384 1.002-.576 1.728-.576.704 0 1.269.192 1.696.576.448.384.672.896.672 1.536s-.214 1.1627-.64 1.568c-.427.384-1.003.576-1.728.576Zm13.277 19.072c-1.6 0-3.008-.3307-4.224-.992-1.195-.6613-2.123-1.6107-2.784-2.848-.662-1.2373-.992-2.6773-.992-4.32 0-1.6427.33-3.072.992-4.288.661-1.2373 1.589-2.1867 2.784-2.848 1.216-.6613 2.624-.992 4.224-.992s2.997.3307 4.192.992c1.216.6613 2.144 1.6107 2.784 2.848.661 1.216.992 2.6453.992 4.288s-.331 3.0827-.992 4.32c-.64 1.2373-1.568 2.1867-2.784 2.848-1.195.6613-2.592.992-4.192.992Zm-.032-3.104c1.301 0 2.293-.4267 2.976-1.28.682-.8533 1.024-2.112 1.024-3.776 0-1.6427-.342-2.8907-1.024-3.744-.683-.8747-1.664-1.312-2.944-1.312s-2.272.4373-2.976 1.312c-.683.8533-1.024 2.1013-1.024 3.744 0 1.664.341 2.9227 1.024 3.776.682.8533 1.664 1.28 2.944 1.28Zm20.726 3.936c-.128.4053-.331.704-.608.896-.278.192-.587.288-.928.288-.427 0-.811-.1493-1.152-.448-.321-.2773-.481-.64-.481-1.088 0-.192.032-.384.096-.576l7.425-23.264c.128-.4053.33-.704.608-.896.277-.192.586-.288.928-.288.426 0 .8.1493 1.12.448.341.2773.512.64.512 1.088 0 .192-.032.384-.096.576l-7.424 23.264Zm23.183-12.352c.448.1707.8.448 1.056.832.256.384.384.8107.384 1.28 0 .4907-.128.928-.384 1.312-.256.3627-.608.64-1.056.832l-11.872 5.056c-.235.1067-.502.16-.8.16-.427 0-.79-.128-1.088-.384-.278-.2773-.416-.6293-.416-1.056 0-.5547.266-.9493.8-1.184l11.296-4.736-11.296-4.736c-.534-.2347-.8-.6293-.8-1.184 0-.4267.138-.768.416-1.024.298-.2773.661-.416 1.088-.416.256 0 .522.0533.8.16l11.872 5.088Z" fill="#0076C1"/><path d="m161.976 42.616-.727.6866.01.0104.01.0101.707-.7071Zm-.032-21.664-.685-.7282-.011.0104-.011.0107.707.7071Zm3.552 2.784v-1h-1v1h1Zm0 6.144h-1v1h1v-1Zm0 3.296v-1h-1v1h1Zm-.544 9.44-.727-.6866.727.6866Zm-1.472-.424c-.394 0-.627-.1132-.797-.2831l-1.414 1.4142c.598.5981 1.367.8689 2.211.8689v-2Zm-.777-.2626c-.158-.167-.271-.4073-.271-.8174h-2c0 .8272.249 1.5896.817 2.1906l1.454-1.3732Zm-.271-.8174v-18.72h-2v18.72h2Zm0-18.72c0-.4317.114-.628.219-.7329l-1.414-1.4142c-.578.5778-.805 1.3415-.805 2.1471h2Zm.197-.7118c.135-.1269.358-.2402.787-.2402v-2c-.809 0-1.567.2281-2.157.7838l1.37 1.4564Zm.787-.2402h11.232v-2h-11.232v2Zm11.232 0c.532 0 .745.1168.815.177.04.0342.137.1319.137.487h2c0-.7543-.229-1.4885-.839-2.009-.58-.4944-1.344-.655-2.113-.655v2Zm.952.664c0 .3381-.093.426-.129.4568-.072.0595-.287.1752-.823.1752v2c.766 0 1.526-.1563 2.105-.6408.614-.5132.847-1.2413.847-1.9912h-2Zm-.952.632h-9.152v2h9.152v-2Zm-10.152 1v6.144h2v-6.144h-2Zm1 7.144h8.512v-2h-8.512v2Zm8.512 0c.532 0 .745.1168.815.177.04.0342.137.1319.137.487h2c0-.7543-.229-1.4885-.839-2.009-.58-.4944-1.344-.655-2.113-.655v2Zm.952.664c0 .3381-.093.426-.129.4568-.072.0595-.287.1752-.823.1752v2c.766 0 1.526-.1563 2.105-.6408.614-.5132.847-1.2413.847-1.9912h-2Zm-.952.632h-8.512v2h8.512v-2Zm-9.512 1v7.936h2v-7.936h-2Zm0 7.936c0 .4101-.113.6504-.271.8174l1.454 1.3732c.568-.601.817-1.3634.817-2.1906h-2Zm-.271.8174c-.141.1495-.35.2626-.745.2626v2c.843 0 1.615-.2709 2.199-.8894l-1.454-1.3732Zm16.805.7826-.685.7282.022.0207.023.0193.64-.7682Zm0-21.952-.64-.7682-.011.009-.01.0094.661.7498Zm2.88 0 .64-.7682-.64.7682Zm0 21.952.64.7682.013-.0102.012-.0106-.665-.7474Zm-1.44-.52c-.379 0-.622-.1004-.8-.2482l-1.28 1.5364c.591.4922 1.308.7118 2.08.7118v-2Zm-.754-.2082c-.116-.1084-.23-.2975-.23-.7118h-2c0 .823.249 1.594.859 2.1682l1.371-1.4564Zm-.23-.7118V22.168h-2v19.104h2Zm0-19.104c0-.4174.115-.5781.206-.6582l-1.323-1.4996c-.635.5599-.883 1.3379-.883 2.1578h2Zm.184-.6398c.178-.1478.421-.2482.8-.2482v-2c-.772 0-1.489.2196-2.08.7118l1.28 1.5364Zm.8-.2482c.38 0 .623.1004.8.2482l1.28-1.5364c-.59-.4922-1.307-.7118-2.08-.7118v2Zm.8.2482c.103.0857.216.2409.216.6398h2c0-.8384-.27-1.6219-.936-2.1762l-1.28 1.5364Zm.216.6398v19.104h2V22.168h-2Zm0 19.104c0 .3966-.113.5795-.24.6926l1.329 1.4948c.64-.5696.911-1.3466.911-2.1874h-2Zm-.216.6718c-.177.1478-.42.2482-.8.2482v2c.773 0 1.49-.2196 2.08-.7118l-1.28-1.5364Zm8.253.3202-.484.8749.006.0036.478-.8785Zm-2.784-2.848.882-.4714-.882.4714Zm0-8.608.879.4778.003-.0064-.882-.4714Zm2.784-2.848-.478-.8785-.006.0036.484.8749Zm8.416 0-.484.8749.006.0036.478-.8785Zm2.784 2.848-.888.4594.005.0092.005.0092.878-.4778Zm0 8.608-.882-.4714-.006.012.888.4594Zm-2.784 2.848-.478-.8785-.006.0036.484.8749Zm-1.248-10.912-.788.6153.007.0094.781-.6247Zm-5.92 0-.779-.627-.002.0023.781.6247Zm2.976 10.904c-1.459 0-2.698-.3005-3.746-.8705l-.956 1.757c1.385.7527 2.962 1.1135 4.702 1.1135v-2Zm-3.739-.8669c-1.022-.5653-1.814-1.3722-2.387-2.4445l-1.764.9428c.75 1.4024 1.814 2.4941 3.182 3.2515l.969-1.7498Zm-2.387-2.4445c-.571-1.0693-.874-2.3422-.874-3.8486h-2c0 1.779.359 3.3861 1.11 4.7914l1.764-.9428Zm-.874-3.8486c0-1.5069.303-2.766.871-3.8102l-1.757-.9556c-.755 1.3878-1.114 2.9874-1.114 4.7658h2Zm.874-3.8166c.573-1.0723 1.365-1.8792 2.387-2.4445l-.969-1.7498c-1.368.7574-2.432 1.8491-3.182 3.2515l1.764.9428Zm2.38-2.4409c1.048-.57 2.287-.8705 3.746-.8705v-2c-1.74 0-3.317.3608-4.702 1.1135l.956 1.757Zm3.746-.8705c1.46 0 2.685.3007 3.708.8669l.969-1.7498c-1.367-.7565-2.937-1.1171-4.677-1.1171v2Zm3.714.8705c1.04.5651 1.825 1.368 2.374 2.4289l1.776-.9188c-.731-1.4137-1.801-2.5096-3.194-3.2671l-.956 1.757Zm2.384 2.4473c.568 1.0442.87 2.3033.87 3.8102h2c0-1.7784-.359-3.378-1.113-4.7658l-1.757.9556Zm.87 3.8102c0 1.5064-.302 2.7793-.874 3.8486l1.764.9428c.751-1.4053 1.11-3.0124 1.11-4.7914h-2Zm-.88 3.8606c-.549 1.0609-1.334 1.8638-2.374 2.4289l.956 1.757c1.393-.7575 2.463-1.8534 3.194-3.2671l-1.776-.9188Zm-2.38 2.4325c-1.023.5662-2.248.8669-3.708.8669v2c1.74 0 3.31-.3606 4.677-1.1171l-.969-1.7498Zm-3.74-.2371c1.541 0 2.848-.5185 3.757-1.6553l-1.562-1.2494c-.456.5699-1.133.9047-2.195.9047v2Zm3.757-1.6553c.882-1.1024 1.243-2.6227 1.243-4.4007h-2c0 1.55-.321 2.547-.805 3.1513l1.562 1.2494Zm1.243-4.4007c0-1.7604-.363-3.2682-1.243-4.3687l-1.562 1.2494c.485.6062.805 1.5943.805 3.1193h2Zm-1.235-4.3593c-.903-1.1567-2.198-1.6967-3.733-1.6967v2c1.026 0 1.693.3346 2.156.9273l1.577-1.2306Zm-3.733-1.6967c-1.535 0-2.833.5396-3.755 1.685l1.558 1.254c.486-.6039 1.172-.939 2.197-.939v-2Zm-3.757 1.6873c-.88 1.1005-1.243 2.6083-1.243 4.3687h2c0-1.525.32-2.5131.805-3.1193l-1.562-1.2494Zm-1.243 4.3687c0 1.778.361 3.2983 1.243 4.4007l1.562-1.2494c-.483-.6043-.805-1.6013-.805-3.1513h-2Zm1.243 4.4007c.906 1.1326 2.2 1.6553 3.725 1.6553v-2c-1.034 0-1.704-.3306-2.163-.9047l-1.562 1.2494Zm23.764-12.4647.071.9975.005-.0004-.076-.9971Zm1.311.352-.654.7557.654-.7557Zm-1.44 3.072.1.995.009-.0008.008-.001-.117-.9932Zm-.959.096-.1-.995-.002.0001.102.9949Zm-2.784 1.28-.772-.6357-.006.0069-.006.0069.784.6219Zm-1.44 10.88.64.7682.012-.0102.012-.0106-.664-.7474Zm-2.88 0-.686.7282.022.0207.023.0193.641-.7682Zm0-15.2-.641-.7682-.011.009-.01.0094.662.7498Zm2.751 0-.683.7295.012.0118.013.0113.658-.7526Zm.513 2.592h-1l1.918.3964-.918-.3964Zm1.792-2.176-.535-.8456-.01.0066.545.839Zm2.688-.864.065.9979.006-.0004-.071-.9975Zm.524.9651c.375-.0289.52.058.581.1106l1.309-1.5114c-.579-.5021-1.309-.6498-2.043-.5934l.153 1.9942Zm.581.1106c.037.0326.135.132.135.4923h2c0-.7491-.223-1.4817-.826-2.0037l-1.309 1.5114Zm.135.4923c0 .4346-.106.5555-.124.5729l1.415 1.4142c.537-.5373.709-1.2697.709-1.9871h-2Zm-.124.5729c-.03.0301-.244.1792-.913.2579l.233 1.9864c.781-.0919 1.57-.3056 2.095-.8301l-1.415-1.4142Zm-.896.2561-.96.096.199 1.99.96-.096-.199-1.99Zm-.962.0961c-1.427.1452-2.638.6479-3.454 1.6392l1.543 1.2714c.379-.4594 1.024-.81 2.114-.9208l-.203-1.9898Zm-3.466 1.653c-.74.9319-1.08 2.0692-1.08 3.3419h2c0-.9033.235-1.5794.647-2.0981l-1.567-1.2438Zm-1.08 3.3419v6.72h2v-6.72h-2Zm0 6.72c0 .3966-.114.5795-.241.6926l1.329 1.4948c.641-.5696.912-1.3466.912-2.1874h-2Zm-.217.6718c-.177.1478-.42.2482-.8.2482v2c.773 0 1.49-.2196 2.081-.7118l-1.281-1.5364Zm-.8.2482c-.379 0-.622-.1004-.799-.2482l-1.281 1.5364c.591.4922 1.308.7118 2.08.7118v-2Zm-.754-.2082c-.115-.1084-.229-.2975-.229-.7118h-2c0 .823.248 1.594.858 2.1682l1.371-1.4564Zm-.229-.7118V28.888h-2v12.384h2Zm0-12.384c0-.3834.107-.5395.205-.6262l-1.323-1.4996c-.627.5533-.882 1.3145-.882 2.1258h2Zm.184-.6078c.184-.1536.419-.2482.768-.2482v-2c-.762 0-1.465.2254-2.049.7118l1.281 1.5364Zm.768-.2482c.35 0 .537.0948.66.2095l1.367-1.459c-.56-.5253-1.269-.7505-2.027-.7505v2Zm.685.2326c.068.0599.171.1882.171.5594h2c0-.7808-.24-1.5272-.854-2.0646l-1.317 1.5052Zm.171.5594v1.28h2v-1.28h-2Zm1.918 1.6764c.334-.7739.808-1.3382 1.418-1.7334l-1.089-1.678c-.969.6288-1.689 1.5151-2.166 2.6186l1.837.7928Zm1.407-1.7269c.666-.4205 1.4-.6582 2.22-.7116l-.131-1.9958c-1.143.0746-2.201.4129-3.156 1.0164l1.067 1.691Zm2.226-.712.448-.032-.143-1.995-.448.032.143 1.995Zm16.826 11.0665-.793.6097.015.0185.015.0177.763-.6459Zm-.832 2.784.488.873.006-.0033-.494-.8697Zm-2.464.992.248.9688.01-.0027.011-.0029-.269-.9632Zm-8.608-1.824-.702.7122.702-.7122Zm1.44-13.088-.503-.8644-.007.0041.51.8603Zm7.648-.096.509-.8606-.509.8606Zm2.432 2.624-.891.4539.891-.4539Zm-9.792 5.376v-1h-1.091l.095 1.0866.996-.0866Zm1.248 3.264-.707.7071.005.0054.006.0054.696-.7179Zm4.864.768-.305-.9525-.011.0038.316.9487Zm1.792-.704.412.9114.03-.0136.029-.0154-.471-.8824Zm-6.752-8.416-.718-.6958-.006.0059-.006.006.73.6839Zm-1.152 2.944-.995-.0995-.11 1.0995h1.105v-1Zm7.232 0v1h1.033l-.034-1.0328-.999.0328Zm-.96-2.944-.753.6585.006.0059.005.0059.742-.6703Zm-4.864-6.016.832.5547.004-.0062.004-.0062-.84-.5423Zm-2.048.288-.707.7071.014.0141.015.0136.678-.7348Zm-.096-1.728-.804-.5946-.009.0126-.009.0128.822.5692Zm2.816-3.808-.781-.6247-.012.0148-.011.0153.804.5946Zm.736-.704-.537-.8437.537.8437Zm1.76 0 .537-.8437-.537.8437Zm.704.736-.824.5665.011.0159.011.0154.802-.5978Zm2.816 3.776-.802.5978.002.0022.8-.6Zm-.128 1.728-.678-.7348-.015.0136-.014.0141.707.7071Zm-2.016-.288-.84.5423.004.0062.004.0062.832-.5547Zm-2.272-3.52.84-.5423-.84-1.3017-.84 1.3017.84.5423Zm5.632 18.44c.027 0 .043.0026.05.004.006.0014.007.0023.004.001s-.004-.0024-.003-.0014c.002.0012.009.0073.02.0221l1.586-1.2194c-.411-.5337-.997-.8063-1.657-.8063v2Zm.101.0619c.041.0495.115.1709.115.4741h2c0-.6355-.161-1.2608-.589-1.7659l-1.526 1.2918Zm.115.4741c0 .172-.07.4492-.678.7943l.988 1.7394c.97-.5509 1.69-1.383 1.69-2.5337h-2Zm-.672.7911c-.647.3615-1.393.664-2.245.9017l.538 1.9264c.983-.2743 1.879-.6331 2.683-1.0823l-.976-1.7458Zm-2.224.8961c-.847.2167-1.638.3208-2.376.3208v2c.926 0 1.884-.1306 2.872-.3832l-.496-1.9376Zm-2.376.3208c-2.316 0-4.036-.6607-5.282-1.8882l-1.404 1.4244c1.698 1.6738 3.967 2.4638 6.686 2.4638v-2Zm-5.282-1.8882c-1.241-1.2231-1.91-2.9279-1.91-5.2398h-2c0 2.7227.803 4.986 2.506 6.6642l1.404-1.4244Zm-1.91-5.2398c0-1.464.292-2.721.848-3.7966l-1.776-.9188c-.724 1.3991-1.072 2.9794-1.072 4.7154h2Zm.848-3.7966c.558-1.0779 1.326-1.8959 2.31-2.4791l-1.02-1.7206c-1.32.7822-2.344 1.8842-3.066 3.2809l1.776.9188Zm2.303-2.4751c1.008-.5863 2.154-.8883 3.465-.8883v-2c-1.633 0-3.132.3807-4.471 1.1597l1.006 1.7286Zm3.465-.8883c1.258 0 2.303.2749 3.171.7886l1.018-1.7212c-1.222-.7236-2.631-1.0674-4.189-1.0674v2Zm3.171.7886c.874.5176 1.556 1.2477 2.05 2.2173l1.782-.9078c-.658-1.2918-1.598-2.311-2.814-3.0307l-1.018 1.7212Zm2.05 2.2173c.491.9635.755 2.1351.755 3.5461h2c0-1.661-.312-3.1561-.973-4.4539l-1.782.9078Zm.755 3.5461c0 .3328-.076.3957-.053.3698.013-.0149.025-.0189.016-.0155-.015.0058-.068.0217-.179.0217v2c.594 0 1.212-.1737 1.661-.6818.429-.4846.555-1.1097.555-1.6942h-2Zm-.216.376h-9.44v2h9.44v-2Zm-10.436 1.0866c.139 1.5966.602 2.95 1.537 3.8845l1.414-1.4142c-.473-.4735-.842-1.2961-.959-2.6435l-1.992.1732Zm1.548 3.8953c.951.922 2.262 1.3061 3.768 1.3061v-2c-1.182 0-1.919-.2985-2.376-.7419l-1.392 1.4358Zm3.768 1.3061c.763 0 1.471-.095 2.108-.3073l-.632-1.8974c-.387.1291-.874.2047-1.476.2047v2Zm2.097-.3036c.578-.1851 1.212-.435 1.899-.745l-.824-1.8228c-.636.2873-1.197.5068-1.685.663l.61 1.9048Zm1.958-.774c.295-.1575.527-.2628.703-.3266.188-.0686.254-.0678.234-.0678v-2c-.318 0-.637.0861-.918.1882-.294.1068-.616.2576-.961.4414l.942 1.7648Zm-4.599-11.3224c-1.316 0-2.465.4224-3.342 1.3282l1.436 1.3916c.445-.4595 1.046-.7198 1.906-.7198v-2Zm-3.354 1.3401c-.837.8935-1.275 2.1104-1.417 3.5284l1.99.199c.114-1.142.444-1.8878.887-2.3596l-1.46-1.3678Zm-.422 4.6279h7.232v-2h-7.232v2Zm8.231-1.0328c-.046-1.4314-.402-2.6794-1.217-3.5815l-1.484 1.3406c.38.4206.664 1.1352.703 2.3065l1.998-.0656Zm-1.206-3.5697c-.822-.9384-1.95-1.3655-3.249-1.3655v2c.834 0 1.37.2556 1.743.6825l1.506-1.317Zm-6.449-5.9122c-.156.2343-.245.2267-.288.2267v2c.853 0 1.511-.4556 1.952-1.1173l-1.664-1.1094Zm-.288.2267c-.063 0-.136-.0138-.25-.1188l-1.356 1.4696c.441.407.986.6492 1.606.6492v-2Zm-.221-.0911c-.081-.0811-.091-.1301-.091-.1889h-2c0 .6239.246 1.1722.677 1.6031l1.414-1.4142Zm-.091-.1889c0-.0334.009-.116.11-.2628l-1.644-1.1384c-.283.4079-.466.88-.466 1.4012h2Zm.092-.2374 2.816-3.808-1.608-1.1892-2.816 3.808 1.608 1.1892Zm2.793-3.7779c.217-.2708.383-.4156.492-.485l-1.074-1.6874c-.36.2293-.685.5538-.98.923l1.562 1.2494Zm.492-.485c.041-.0263.133-.0677.327-.0677v-2c-.488 0-.973.1079-1.401.3803l1.074 1.6874Zm.327-.0677c.229 0 .327.0472.359.0677l1.074-1.6874c-.437-.2781-.937-.3803-1.433-.3803v2Zm.359.0677c.08.0508.225.179.417.4588l1.648-1.133c-.277-.4029-.602-.7653-.991-1.0132l-1.074 1.6874Zm.439.4901 2.816 3.776 1.604-1.1956-2.816-3.776-1.604 1.1956Zm2.818 3.7782c.072.096.088.1656.088.232h2c0-.5309-.176-1.0161-.488-1.432l-1.6 1.2Zm.088.232c0 .031.002.0723-.094.1612l1.356 1.4696c.459-.4231.738-.9792.738-1.6308h-2Zm-.123.1889c-.081.0811-.13.0911-.189.0911v2c.624 0 1.172-.246 1.603-.6769l-1.414-1.4142Zm-.189.0911c-.043 0-.132.0076-.288-.2267l-1.664 1.1094c.441.6617 1.099 1.1173 1.952 1.1173v-2Zm-.28-.2143-2.272-3.52-1.68 1.0846 2.272 3.52 1.68-1.0846Zm-3.952-3.52-2.272 3.52 1.68 1.0846 2.272-3.52-1.68-1.0846Zm24.368 7.8383.758-.652-.758.652Zm.832 14.112-.685-.7282-.011.0104-.011.0107.707.7071Zm-2.912 0 .685-.7282-.685.7282Zm-1.248-11.712-.778.6283.007.0089.008.0087.763-.6459Zm-4.928.256-.718-.6965-.005.0055-.005.0056.728.6854Zm-1.568 11.456-.685-.7282.685.7282Zm-2.944 0-.707.7071.011.0107.011.0104.685-.7282Zm.032-15.136-.685-.7282.685.7282Zm2.816 0-.707.7071.022.0221.023.0206.662-.7498Zm.544 2.144h-1v3.5608l1.854-3.0402-.854-.5206Zm5.184-1.72c1.689 0 2.765.474 3.434 1.252l1.516-1.304c-1.165-1.3554-2.884-1.948-4.95-1.948v2Zm3.434 1.252c.697.8104 1.134 2.1426 1.134 4.18h2c0-2.272-.48-4.161-1.618-5.484l-1.516 1.304Zm1.134 4.18v7.872h2V33.4h-2Zm0 7.872c0 .381-.107.5646-.229.6798l1.37 1.4564c.603-.5675.859-1.3226.859-2.1362h-2Zm-.251.7009c-.105.1049-.301.2191-.733.2191v2c.806 0 1.569-.2271 2.147-.8049l-1.414-1.4142Zm-.733.2191c-.429 0-.652-.1133-.787-.2402l-1.37 1.4564c.59.5557 1.348.7838 2.157.7838v-2Zm-.787-.2402c-.122-.1152-.229-.2988-.229-.6798h-2c0 .8136.256 1.5687.859 2.1362l1.37-1.4564Zm-.229-.6798v-7.648h-2v7.648h2Zm0-7.648c0-1.3056-.245-2.4796-.941-3.3019l-1.526 1.2918c.242.2871.467.8837.467 2.0101h2Zm-.926-3.2843c-.702-.8696-1.759-1.2037-2.922-1.2037v2c.799 0 1.172.2206 1.366.4603l1.556-1.2566Zm-2.922-1.2037c-1.381 0-2.582.4444-3.502 1.3915l1.436 1.393c.488-.5036 1.143-.7845 2.066-.7845v-2Zm-3.512 1.4026c-.894.95-1.296 2.186-1.296 3.5974h2c0-1.0206.281-1.7259.752-2.2266l-1.456-1.3708Zm-1.296 3.5974v7.136h2v-7.136h-2Zm0 7.136c0 .381-.107.5646-.229.6798l1.37 1.4564c.603-.5675.859-1.3226.859-2.1362h-2Zm-.229.6798c-.135.1269-.358.2402-.787.2402v2c.809 0 1.567-.2281 2.157-.7838l-1.37-1.4564Zm-.787.2402c-.429 0-.652-.1133-.787-.2402l-1.37 1.4564c.59.5557 1.348.7838 2.157.7838v-2Zm-.765-.2191c-.111-.1114-.219-.302-.219-.7009h-2c0 .7958.234 1.5438.805 2.1151l1.414-1.4142Zm-.219-.7009V28.888h-2v12.384h2Zm0-12.384c0-.3136.091-.486.229-.6158l-1.37-1.4564c-.588.5528-.859 1.2765-.859 2.0722h2Zm.229-.6158c.135-.1269.358-.2402.787-.2402v-2c-.809 0-1.567.2281-2.157.7838l1.37 1.4564Zm.787-.2402c.332 0 .511.0936.637.2191l1.414-1.4142c-.557-.5572-1.274-.8049-2.051-.8049v2Zm.682.2618c.124.1094.206.2508.206.5302h2c0-.7872-.281-1.4992-.882-2.0298l-1.324 1.4996Zm.206.5302v.864h2v-.864h-2Zm1.854 1.3846c.44-.7219 1.021-1.2667 1.754-1.6508l-.928-1.7716c-1.059.5546-1.907 1.3538-2.534 2.3812l1.708 1.0412Zm1.754-1.6508c.737-.3858 1.588-.5898 2.576-.5898v-2c-1.273 0-2.449.2654-3.504.8182l.928 1.7716ZM257.49 42.264l-.491.8712.006.0037.485-.8749Zm-2.72-2.816.885-.4657-.885.4657Zm.032-8.544-.879-.4768-.003.0054.882.4714Zm2.848-2.912.489.872-.489-.872Zm6.688-.672-.272.9625.007.0017.265-.9642Zm2.24.96.548-.836-.006-.0045-.007-.0043-.535.8448Zm.672 2.848-.787-.6179-.006.0082.793.6097Zm-1.6.256-.385.9231.385-.9231Zm-.768-.384-.509.8609.005.0029.504-.8638Zm-1.344-.64-.372.9285.021.0081.02.0073.331-.9439Zm-4.544 1.056-.77-.6383-.002.0019.772.6364Zm0 7.424-.779.627.008.0104.009.0102.762-.6476Zm4.48 1.056.345.9383.013-.0047.013-.0051-.371-.9285Zm1.408-.672.476.8793.019-.0105.019-.0113-.514-.8575Zm.832-.416.341.9398.037-.0133.036-.0161-.414-.9104Zm1.568.288.786-.6178-.786.6178Zm.096 2.08-.852-.5241-.006.01-.006.0102.864.5039Zm-.768.704-.507-.8619-.018.0104-.017.0112.542.8403Zm-2.304 1.024.259.9658.011-.0029.011-.0032-.281-.9597Zm-2.688-.648c-1.412 0-2.617-.2986-3.644-.8669l-.969 1.7498c1.363.7543 2.91 1.1171 4.613 1.1171v-2Zm-3.637-.8632c-1.002-.5648-1.774-1.3611-2.326-2.4105l-1.77.9314c.727 1.3826 1.769 2.4637 3.114 3.2215l.982-1.7424Zm-2.326-2.4105c-.552-1.0487-.845-2.3021-.845-3.7903h-2c0 1.7545.347 3.3384 1.075 4.7217l1.77-.9314Zm-.845-3.7903c0-1.4826.301-2.7454.874-3.8166l-1.764-.9428c-.75 1.4035-1.11 2.9994-1.11 4.7594h2Zm.871-3.8112c.595-1.0975 1.411-1.9291 2.458-2.5168l-.979-1.744c-1.385.7776-2.467 1.8874-3.237 3.3072l1.758.9536Zm2.458-2.5168c1.048-.5882 2.273-.896 3.703-.896v-2c-1.727 0-3.297.3748-4.682 1.152l.979 1.744Zm3.703-.896c.736 0 1.477.1037 2.224.3144l.543-1.9249c-.917-.2586-1.84-.3895-2.767-.3895v2Zm2.231.3162c.773.2127 1.426.4962 1.97.8406l1.07-1.6896c-.736-.4663-1.577-.8228-2.51-1.0794l-.53 1.9284Zm1.956.8318c.465.305.573.584.573.86h2c0-1.0893-.575-1.941-1.476-2.532l-1.097 1.672Zm.573.86c0 .2994-.072.45-.139.5342l1.573 1.2356c.403-.5131.566-1.1305.566-1.7698h-2Zm-.145.5423c-.011.0148-.018.0209-.02.0221-.001.001 0-.0001.003-.0014s.002-.0004-.005.001c-.007.0015-.022.004-.049.004v2c.66 0 1.246-.2726 1.656-.8063l-1.585-1.2194Zm-.071.0257c-.081 0-.196-.0181-.352-.0831l-.769 1.8462c.356.1483.732.2369 1.121.2369v-2Zm-.352-.0831c-.212-.0884-.428-.1962-.648-.3247l-1.008 1.7276c.292.1702.587.3184.887.4433l.769-1.8462Zm-.644-.3218c-.514-.3042-1.022-.548-1.522-.723l-.661 1.8878c.354.1237.742.3065 1.166.557l1.017-1.7218Zm-1.481-.7076c-.566-.2266-1.187-.3275-1.843-.3275v2c.453 0 .814.0697 1.1.1845l.743-1.857Zm-1.843-.3275c-1.566 0-2.894.5311-3.842 1.6737l1.54 1.2766c.503-.6067 1.222-.9503 2.302-.9503v-2Zm-3.844 1.6756c-.907 1.0995-1.284 2.5998-1.284 4.3484h2c0-1.494.326-2.4684.827-3.0756l-1.543-1.2728Zm-1.284 4.3484c0 1.7333.38 3.2247 1.277 4.339l1.558-1.254c-.511-.635-.835-1.6183-.835-3.085h-2Zm1.294 4.3596c.95 1.1181 2.276 1.6324 3.834 1.6324v-2c-1.088 0-1.81-.339-2.31-.9276l-1.524 1.2952Zm3.834 1.6324c.624 0 1.215-.0872 1.753-.2857l-.691-1.8766c-.272.1002-.62.1623-1.062.1623v2Zm1.779-.2955c.471-.1882.976-.4301 1.513-.7212l-.953-1.7586c-.486.2635-.92.4697-1.303.6228l.743 1.857Zm1.551-.743c.289-.1735.507-.2781.659-.3337l-.683-1.8796c-.316.115-.654.2878-1.005.4983l1.029 1.715Zm.732-.3631c.117-.0535.211-.0704.29-.0704v-2c-.391 0-.766.0898-1.118.2496l.828 1.8208Zm.29-.0704c.012 0 .016.0012.015.001 0-.0001-.001-.0003-.002-.0007-.001-.0003-.002-.0006-.002-.0005.001 0 .002.0006.004.0023.003.0016.007.0045.012.0092.011.0092.028.0261.05.0545l1.573-1.2356c-.4-.5089-.965-.8302-1.65-.8302v2Zm.077.0658c.073.0922.139.2364.139.5022h2c0-.6302-.169-1.2327-.566-1.7378l-1.573 1.2356Zm.139.5022c0 .1993-.045.3337-.108.4359l1.703 1.0482c.279-.4524.405-.958.405-1.4841h-2Zm-.12.4561c-.034.0589-.138.1851-.411.346l1.014 1.7238c.452-.2658.86-.6089 1.125-1.062l-1.728-1.0078Zm-.446.3676c-.569.367-1.247.6714-2.043.9046l.562 1.9194c.952-.2788 1.811-.6571 2.565-1.1434l-1.084-1.6806Zm-2.021.8985c-.789.2117-1.598.3178-2.429.3178v2c1.003 0 1.987-.1285 2.947-.3862l-.518-1.9316Zm6.796.7738-.686.7282.022.0207.024.0193.64-.7682Zm0-15.2-.64-.7682-.011.009-.011.0094.662.7498Zm2.88 0 .64-.7682-.64.7682Zm0 15.2.64.7682.012-.0102.012-.0106-.664-.7474Zm-3.168-19.104-.689.725.01.0093.01.009.669-.7433Zm0-3.104.669.7433-.669-.7433Zm3.424 0-.669.7433.009.0081.009.0079.651-.7593Zm.032 3.104.669.7433.01-.009.01-.0093-.689-.725Zm-1.728 18.584c-.38 0-.623-.1004-.8-.2482l-1.28 1.5364c.59.4922 1.307.7118 2.08.7118v-2Zm-.755-.2082c-.115-.1084-.229-.2975-.229-.7118h-2c0 .823.248 1.594.858 2.1682l1.371-1.4564Zm-.229-.7118V28.92h-2v12.352h2Zm0-12.352c0-.4174.115-.5781.205-.6582l-1.323-1.4996c-.635.5599-.882 1.3379-.882 2.1578h2Zm.184-.6398c.177-.1478.42-.2482.8-.2482v-2c-.773 0-1.49.2196-2.08.7118l1.28 1.5364Zm.8-.2482c.379 0 .622.1004.8.2482l1.28-1.5364c-.591-.4922-1.308-.7118-2.08-.7118v2Zm.8.2482c.102.0857.216.2409.216.6398h2c0-.8384-.271-1.6219-.936-2.1762l-1.28 1.5364Zm.216.6398v12.352h2V28.92h-2Zm0 12.352c0 .3966-.113.5795-.241.6926l1.329 1.4948c.641-.5696.912-1.3466.912-2.1874h-2Zm-.216.6718c-.178.1478-.421.2482-.8.2482v2c.772 0 1.489-.2196 2.08-.7118l-1.28-1.5364Zm-.8-18.7598c-.546 0-.861-.1407-1.059-.3193l-1.338 1.4866c.655.5894 1.492.8327 2.397.8327v-2Zm-1.04-.301c-.209-.1989-.328-.4505-.328-.843h-2c0 .8875.307 1.6813.951 2.293l1.377-1.45Zm-.328-.843c0-.3928.118-.6213.309-.7927l-1.338-1.4866c-.663.5966-.971 1.3921-.971 2.2793h2Zm.309-.7927c.198-.1786.513-.3193 1.059-.3193v-2c-.905 0-1.742.2433-2.397.8327l1.338 1.4866Zm1.059-.3193c.515 0 .823.1359 1.027.3193l1.338-1.4866c-.65-.5846-1.473-.8327-2.365-.8327v2Zm1.045.3353c.206.1765.323.4007.323.7767h2c0-.904-.331-1.7038-1.021-2.2953l-1.302 1.5186Zm.323.7767c0 .3925-.12.6441-.329.843l1.378 1.45c.643-.6117.951-1.4055.951-2.293h-2Zm-.309.8247c-.199.1786-.513.3193-1.059.3193v2c.905 0 1.742-.2433 2.397-.8327l-1.338-1.4866Zm7.994 19.3993-.485.8749.007.0036.478-.8785Zm-2.784-2.848.882-.4714-.882.4714Zm0-8.608.878.4778.004-.0064-.882-.4714Zm2.784-2.848-.478-.8785-.007.0036.485.8749Zm8.416 0-.485.8749.007.0036.478-.8785Zm2.784 2.848-.888.4594.004.0092.005.0092.879-.4778Zm0 8.608-.882-.4714-.006.012.888.4594Zm-2.784 2.848-.478-.8785-.007.0036.485.8749Zm-1.248-10.912-.789.6153.008.0094.781-.6247Zm-5.92 0-.779-.627-.002.0023.781.6247Zm2.976 10.904c-1.46 0-2.699-.3005-3.746-.8705l-.956 1.757c1.384.7527 2.961 1.1135 4.702 1.1135v-2Zm-3.74-.8669c-1.021-.5653-1.813-1.3722-2.386-2.4445l-1.764.9428c.749 1.4024 1.813 2.4941 3.181 3.2515l.969-1.7498Zm-2.386-2.4445c-.572-1.0693-.874-2.3422-.874-3.8486h-2c0 1.779.359 3.3861 1.11 4.7914l1.764-.9428Zm-.874-3.8486c0-1.5069.302-2.766.87-3.8102l-1.757-.9556c-.754 1.3878-1.113 2.9874-1.113 4.7658h2Zm.874-3.8166c.573-1.0723 1.365-1.8792 2.386-2.4445l-.969-1.7498c-1.368.7574-2.432 1.8491-3.181 3.2515l1.764.9428Zm2.38-2.4409c1.047-.57 2.286-.8705 3.746-.8705v-2c-1.741 0-3.318.3608-4.702 1.1135l.956 1.757Zm3.746-.8705c1.46 0 2.685.3007 3.707.8669l.969-1.7498c-1.366-.7565-2.936-1.1171-4.676-1.1171v2Zm3.714.8705c1.039.5651 1.825 1.368 2.374 2.4289l1.776-.9188c-.731-1.4137-1.802-2.5096-3.194-3.2671l-.956 1.757Zm2.383 2.4473c.568 1.0442.871 2.3033.871 3.8102h2c0-1.7784-.359-3.378-1.114-4.7658l-1.757.9556Zm.871 3.8102c0 1.5064-.303 2.7793-.874 3.8486l1.764.9428c.751-1.4053 1.11-3.0124 1.11-4.7914h-2Zm-.88 3.8606c-.549 1.0609-1.335 1.8638-2.374 2.4289l.956 1.757c1.392-.7575 2.463-1.8534 3.194-3.2671l-1.776-.9188Zm-2.381 2.4325c-1.022.5662-2.247.8669-3.707.8669v2c1.74 0 3.31-.3606 4.676-1.1171l-.969-1.7498Zm-3.739-.2371c1.54 0 2.847-.5185 3.757-1.6553l-1.562-1.2494c-.456.5699-1.133.9047-2.195.9047v2Zm3.757-1.6553c.882-1.1024 1.243-2.6227 1.243-4.4007h-2c0 1.55-.322 2.547-.805 3.1513l1.562 1.2494Zm1.243-4.4007c0-1.7604-.363-3.2682-1.243-4.3687l-1.562 1.2494c.485.6062.805 1.5943.805 3.1193h2Zm-1.236-4.3593c-.903-1.1567-2.198-1.6967-3.732-1.6967v2c1.025 0 1.693.3346 2.155.9273l1.577-1.2306ZM285.56 29.04c-1.535 0-2.833.5396-3.755 1.685l1.558 1.254c.486-.6039 1.172-.939 2.197-.939v-2Zm-3.757 1.6873c-.88 1.1005-1.243 2.6083-1.243 4.3687h2c0-1.525.32-2.5131.805-3.1193l-1.562-1.2494Zm-1.243 4.3687c0 1.778.361 3.2983 1.243 4.4007l1.562-1.2494c-.484-.6043-.805-1.6013-.805-3.1513h-2Zm1.243 4.4007c.906 1.1326 2.199 1.6553 3.725 1.6553v-2c-1.035 0-1.704-.3306-2.163-.9047l-1.562 1.2494Zm24.45 4.5913-.952-.304-.001.0029.953.3011Zm-.607.896.569.8222-.569-.8222Zm-2.08-.16.658-.7526-.004-.0031-.654.7557Zm-.384-1.664.948.3163.004-.0123-.952-.304Zm7.423-23.264.953.304.001-.0029-.954-.3011Zm.609-.896.569.8222-.569-.8222Zm2.048.16-.683.7311.025.0234.027.0216.631-.7761Zm.416 1.664-.949-.3163-.004.0123.953.304ZM305.3 43.7869c-.079.2497-.172.3389-.224.3749l1.139 1.6444c.502-.348.815-.8562.992-1.4171l-1.907-.6022Zm-.224.3749c-.108.0748-.218.1102-.359.1102v2c.543 0 1.051-.1566 1.498-.4658l-1.139-1.6444Zm-.359.1102c-.168 0-.321-.0505-.493-.2006l-1.317 1.5052c.511.4472 1.126.6954 1.81.6954v-2Zm-.497-.2037c-.086-.0752-.135-.1552-.135-.3323h-2c0 .7189.272 1.3642.826 1.8437l1.309-1.5114Zm-.135-.3323c0-.0788.013-.1642.045-.2598l-1.897-.6324c-.096.2884-.148.587-.148.8922h2Zm.049-.272 7.424-23.264-1.905-.608-7.424 23.264 1.905.608Zm7.425-23.2669c.079-.2497.172-.3389.224-.3749l-1.139-1.6444c-.502.348-.815.8562-.992 1.4171l1.907.6022Zm.224-.3749c.108-.0748.218-.1102.358-.1102v-2c-.542 0-1.05.1566-1.497.4658l1.139 1.6444Zm.358-.1102c.167 0 .298.0483.438.1791l1.365-1.4622c-.5-.4665-1.115-.7169-1.803-.7169v2Zm.49.2241c.103.0834.142.1585.142.3119h2c0-.7426-.301-1.3928-.881-1.8641l-1.261 1.5522Zm.142.3119c0 .0788-.012.1642-.044.2598l1.897.6324c.096-.2884.147-.587.147-.8922h-2Zm-.048.272-7.424 23.264 1.905.608 7.424-23.264-1.905-.608Zm16.712 11.216-.394.9191.019.0081.019.0073.356-.9345Zm1.056.832-.832.5547.832-.5547Zm0 2.592.817.5767.007-.0109.008-.0111-.832-.5547Zm-1.056.832.392.92.002-.0009-.394-.9191Zm-11.872 5.056-.392-.92-.011.0047-.011.0049.414.9104Zm-1.888-.224-.707.7071.027.0272.029.025.651-.7593Zm.384-2.24-.387-.9222-.008.0034-.008.0035.403.9153Zm11.296-4.736.386.9222 2.2-.9222-2.2-.9222-.386.9222Zm-11.296-4.736-.403.9153.008.0035.008.0034.387-.9222Zm-.384-2.208.678.7348.002-.002-.68-.7328Zm1.888-.256.394-.9191-.018-.0075-.017-.0067-.359.9333Zm11.516 6.0225c.261.0997.444.2482.58.4522l1.664-1.1094c-.376-.564-.898-.9702-1.532-1.2118l-.712 1.869Zm.58.4522c.144.2168.216.4498.216.7253h2c0-.6632-.185-1.2835-.552-1.8347l-1.664 1.1094Zm.216.7253c0 .3064-.077.5481-.216.7573l1.664 1.1094c.372-.5588.552-1.1917.552-1.8667h-2Zm-.201.7353c-.139.197-.338.363-.633.4896l.788 1.8382c.6-.2574 1.106-.6461 1.479-1.1744l-1.634-1.1534Zm-.631.4887-11.872 5.056.784 1.84 11.872-5.056-.784-1.84Zm-11.894 5.0656c-.086.039-.208.0704-.386.0704v2c.419 0 .83-.0752 1.214-.2496l-.828-1.8208Zm-.386.0704c-.21 0-.336-.0562-.437-.1433l-1.302 1.5186c.496.4249 1.095.6247 1.739.6247v-2Zm-.381-.0911c-.073-.0724-.123-.1618-.123-.3489h-2c0 .6662.226 1.2808.709 1.7631l1.414-1.4142Zm-.123-.3489c0-.1115.024-.146.028-.1521.007-.0095.042-.0582.174-.1166l-.805-1.8306c-.401.1763-.766.4422-1.026.8274-.262.3886-.371.8287-.371 1.2719h2Zm.186-.2618 11.296-4.736-.773-1.8444-11.296 4.736.773 1.8444Zm11.296-6.5804-11.296-4.736-.773 1.8444 11.296 4.736.773-1.8444Zm-11.28-4.7291c-.132-.0584-.167-.1072-.174-.1166-.004-.0061-.028-.0406-.028-.1521h-2c0 .4432.109.8833.371 1.2719.26.3852.625.6511 1.026.8274l.805-1.8306Zm-.202-.2687c0-.1878.05-.2482.094-.2892l-1.357-1.4696c-.51.471-.737 1.0932-.737 1.7588h2Zm.096-.2912c.105-.0969.22-.1488.408-.1488v-2c-.666 0-1.276.2255-1.769.6832l1.361 1.4656Zm.408-.1488c.115 0 .26.0238.441.0933l.718-1.8666c-.374-.1438-.762-.2267-1.159-.2267v2Zm.406.0791 11.872 5.088.788-1.8382-11.872-5.088-.788 1.8382Z" fill="#000"/></g><g filter="url(#b)"><path d="M19.608 38.584c.5333.2347.8.6293.8 1.184 0 .4267-.1493.7787-.448 1.056-.2773.256-.6293.384-1.056.384-.2987 0-.5653-.0533-.8-.16L6.232 35.992c-.448-.192-.8-.4693-1.056-.832-.256-.384-.384-.8213-.384-1.312 0-.4693.128-.896.384-1.28s.608-.6613 1.056-.832l11.872-5.088c.2773-.1067.544-.16.8-.16.4267 0 .7787.1387 1.056.416.2987.256.448.5973.448 1.024 0 .5547-.2667.9493-.8 1.184L8.312 33.848l11.296 4.736ZM53.339 20.28c.5973 0 1.0773.192 1.44.576.3627.3627.544.8533.544 1.472v18.944c0 .5973-.1707 1.0667-.512 1.408-.3413.3413-.7893.512-1.344.512-.5547 0-.992-.1707-1.312-.512-.32-.3413-.48-.8107-.48-1.408V28.088l-5.44 10.304c-.256.4693-.5333.8213-.832 1.056-.2987.2133-.6507.32-1.056.32-.4053 0-.7573-.1067-1.056-.32-.2987-.2133-.576-.5653-.832-1.056l-5.472-10.144v13.024c0 .576-.1707 1.0453-.512 1.408-.32.3413-.7573.512-1.312.512-.5547 0-.992-.1707-1.312-.512-.32-.3413-.48-.8107-.48-1.408V22.328c0-.6187.1707-1.1093.512-1.472.3627-.384.8427-.576 1.44-.576.832 0 1.4827.4587 1.952 1.376l7.104 13.536 7.072-13.536c.4693-.9173 1.0987-1.376 1.888-1.376Zm13.3063 6.688c2.176 0 3.7866.544 4.832 1.632 1.0666 1.0667 1.6 2.6987 1.6 4.896v7.808c0 .576-.1707 1.0347-.512 1.376-.3414.32-.8107.48-1.408.48-.5547 0-1.0134-.1707-1.376-.512-.3414-.3413-.512-.7893-.512-1.344V40.6c-.3627.832-.9387 1.4827-1.728 1.952-.768.4693-1.664.704-2.688.704-1.0454 0-1.9947-.2133-2.8481-.64-.8533-.4267-1.5253-1.0133-2.0159-1.76-.4907-.7467-.736-1.5787-.736-2.496 0-1.152.288-2.0587.864-2.72.5973-.6613 1.5573-1.1413 2.88-1.44 1.3226-.2987 3.1466-.448 5.472-.448h.8v-.736c0-1.0453-.224-1.8027-.672-2.272-.448-.4907-1.1734-.736-2.176-.736-.6187 0-1.248.096-1.888.288-.64.1707-1.3974.4267-2.272.768-.5547.2773-.96.416-1.216.416-.384 0-.704-.1387-.96-.416-.2347-.2773-.352-.64-.352-1.088 0-.3627.0853-.672.256-.928.192-.2773.5013-.5333.928-.768.7466-.4053 1.632-.7253 2.656-.96 1.0453-.2347 2.0693-.352 3.072-.352Zm-.992 13.408c1.0666 0 1.9306-.352 2.592-1.056.6826-.7253 1.024-1.6533 1.024-2.784v-.672h-.576c-1.4294 0-2.5387.064-3.328.192-.7894.128-1.3547.352-1.696.672-.3414.32-.512.7573-.512 1.312 0 .6827.2346 1.248.704 1.696.4906.4267 1.088.64 1.792.64Zm19.6172-.16c1.0667.064 1.6.544 1.6 1.44 0 .512-.2133.9067-.64 1.184-.4053.256-.992.3627-1.76.32l-.864-.064c-3.584-.256-5.376-2.176-5.376-5.76V30.36h-1.6c-.576 0-1.024-.128-1.344-.384-.2987-.256-.448-.6293-.448-1.12 0-.4907.1493-.864.448-1.12.32-.256.768-.384 1.344-.384h1.6v-2.944c0-.576.1813-1.0347.544-1.376.3627-.3413.8533-.512 1.472-.512.5973 0 1.0773.1707 1.44.512.3627.3413.544.8.544 1.376v2.944h2.72c.576 0 1.0133.128 1.312.384.32.256.48.6293.48 1.12 0 .4907-.16.864-.48 1.12-.2987.256-.736.384-1.312.384h-2.72v7.264c0 1.5787.7253 2.4213 2.176 2.528l.864.064ZM98.107 26.968c3.669 0 5.504 2.144 5.504 6.432v7.872c0 .5973-.181 1.0667-.544 1.408-.341.3413-.821.512-1.44.512s-1.109-.1707-1.472-.512c-.3627-.3413-.544-.8107-.544-1.408V33.4c0-1.1307-.2347-1.952-.704-2.464-.448-.5333-1.1627-.8-2.144-.8-1.152 0-2.08.3627-2.784 1.088-.6827.7253-1.024 1.696-1.024 2.912v7.136c0 .5973-.1813 1.0667-.544 1.408-.3627.3413-.8533.512-1.472.512s-1.1093-.1707-1.472-.512c-.3413-.3413-.512-.8107-.512-1.408V22.136c0-.5547.1813-1.0027.544-1.344.384-.3413.8747-.512 1.472-.512.5973 0 1.0773.16 1.44.48.3627.32.544.7573.544 1.312v7.456c.5333-.832 1.2373-1.4613 2.112-1.888.896-.448 1.9093-.672 3.04-.672Zm21.951 11.744c.362 0 .65.1387.864.416.234.2773.352.6507.352 1.12 0 .6613-.395 1.216-1.184 1.664-.726.4053-1.547.736-2.464.992-.918.2347-1.792.352-2.624.352-2.518 0-4.512-.7253-5.984-2.176-1.472-1.4507-2.208-3.4347-2.208-5.952 0-1.6.32-3.0187.96-4.256.64-1.2373 1.536-2.1973 2.688-2.88 1.173-.6827 2.496-1.024 3.968-1.024 1.408 0 2.634.3093 3.68.928 1.045.6187 1.856 1.4933 2.432 2.624.576 1.1307.864 2.464.864 4 0 .9173-.406 1.376-1.216 1.376h-9.44c.128 1.472.544 2.56 1.248 3.264.704.6827 1.728 1.024 3.072 1.024.682 0 1.28-.0853 1.792-.256.533-.1707 1.13-.4053 1.792-.704.64-.3413 1.109-.512 1.408-.512Zm-5.536-8.928c-1.088 0-1.963.3413-2.624 1.024-.64.6827-1.024 1.664-1.152 2.944h7.232c-.043-1.3013-.363-2.2827-.96-2.944-.598-.6827-1.43-1.024-2.496-1.024Zm22.504-2.752c.618 0 1.109.1707 1.472.512.362.3413.544.8.544 1.376v12.416c0 .5547-.192 1.0027-.576 1.344-.363.3413-.843.512-1.44.512-.576 0-1.035-.16-1.376-.48-.342-.32-.512-.7573-.512-1.312v-.8c-.491.8533-1.152 1.5147-1.984 1.984-.832.448-1.771.672-2.816.672-3.84 0-5.76-2.1547-5.76-6.464V28.92c0-.576.181-1.0347.544-1.376.362-.3413.842-.512 1.44-.512.618 0 1.109.1707 1.472.512.362.3413.544.8.544 1.376v7.904c0 1.1093.224 1.9307.672 2.464.448.5333 1.152.8 2.112.8 1.109 0 1.994-.3627 2.656-1.088.682-.7467 1.024-1.728 1.024-2.944V28.92c0-.576.181-1.0347.544-1.376.362-.3413.842-.512 1.44-.512Zm11.843 16.224c-2.325 0-4.203-.4587-5.632-1.376-.683-.4053-1.024-.9813-1.024-1.728 0-.4267.117-.768.352-1.024.235-.2773.523-.416.864-.416.363 0 .864.1707 1.504.512.683.32 1.301.5653 1.856.736.576.1707 1.301.256 2.176.256.896 0 1.589-.1493 2.08-.448.512-.2987.768-.7147.768-1.248 0-.3627-.107-.6507-.32-.864-.192-.2133-.555-.4053-1.088-.576-.512-.192-1.301-.4053-2.368-.64-1.899-.384-3.264-.928-4.096-1.632-.811-.704-1.216-1.6747-1.216-2.912 0-.9387.277-1.7813.832-2.528.555-.768 1.312-1.3547 2.272-1.76.981-.4267 2.091-.64 3.328-.64.896 0 1.76.1173 2.592.352.832.2133 1.579.5333 2.24.96.683.4267 1.024.992 1.024 1.696 0 .4267-.117.7893-.352 1.088-.235.2773-.523.416-.864.416-.235 0-.469-.0427-.704-.128-.213-.1067-.491-.256-.832-.448-.619-.32-1.152-.5547-1.6-.704-.448-.1707-1.003-.256-1.664-.256-.789 0-1.419.16-1.888.48-.448.32-.672.7573-.672 1.312 0 .5333.235.9387.704 1.216s1.376.5547 2.72.832c1.429.2987 2.549.64 3.36 1.024.811.384 1.387.864 1.728 1.44.363.576.544 1.312.544 2.208 0 1.4507-.608 2.6133-1.824 3.488-1.195.8747-2.795 1.312-4.8 1.312Z" fill="#F3F3F3"/><path d="m19.608 38.584.4027-.9153-.008-.0035-.008-.0034-.3867.9222Zm.352 2.24.6783.7348.0022-.002-.6805-.7328Zm-1.856.224.4138-.9104-.0109-.0049-.0111-.0047-.3918.92ZM6.232 35.992l-.39392.9191.0021.0009.39182-.92Zm-1.056-.832-.83205.5547.00739.0111.00769.0109.81697-.5767Zm0-2.592.83205.5547-.83205-.5547Zm1.056-.832.356.9345.01911-.0073.01881-.0081-.39392-.9191Zm11.872-5.088-.359-.9333-.0176.0067-.0173.0075.3939.9191Zm1.856.256-.7071.7071.0272.0272.0291.025.6508-.7593Zm-.352 2.208.3867.9222.008-.0034.008-.0035-.4027-.9153ZM8.312 33.848l-.38665-.9222-2.19963.9222 2.19963.9222.38665-.9222Zm10.8933 5.6513c.1327.0584.1678.1071.1741.1166.0042.0061.0286.0406.0286.1521h2c0-.4432-.1089-.8833-.3714-1.2719-.2603-.3852-.6252-.6511-1.0259-.8274l-.8054 1.8306Zm.2027.2687c0 .1633-.0441.2449-.1284.3232l1.3609 1.4656c.5129-.4763.7675-1.0987.7675-1.7888h-2Zm-.1263.3212c-.0682.063-.1671.1188-.3777.1188v2c.6427 0 1.2478-.2002 1.7343-.6492l-1.3566-1.4696Zm-.3777.1188c-.1784 0-.3005-.0314-.3862-.0704l-.8276 1.8208c.3837.1744.7949.2496 1.2138.2496v-2Zm-.4082-.08L6.62382 35.072l-.78364 1.84 11.87202 5.056.7836-1.84ZM6.62592 35.0729c-.29524-.1266-.4939-.2926-.63295-.4896l-1.63394 1.1534c.37295.5283.8783.917 1.47905 1.1744l.78784-1.8382Zm-.61787-.4676c-.13943-.2092-.21605-.4509-.21605-.7573h-2c0 .675.17938 1.3078.55195 1.8667l1.6641-1.1094ZM5.792 33.848c0-.2755.07152-.5085.21605-.7253l-1.6641-1.1094c-.36747.5512-.55195 1.1715-.55195 1.8347h2Zm.21605-.7253c.13598-.204.31823-.3525.57995-.4522l-.712-1.869c-.63428.2416-1.15603.6478-1.53205 1.2118l1.6641 1.1094Zm.61787-.4676 11.87198-5.088-.7878-1.8382-11.87202 5.088.78784 1.8382ZM18.463 27.5813c.1809-.0695.3258-.0933.441-.0933v-2c-.3968 0-.7852.0829-1.159.2267l.718 1.8666Zm.441-.0933c.1871 0 .2765.0507.3489.1231l1.4142-1.4142c-.4823-.4823-1.0969-.7089-1.7631-.7089v2Zm.4052.1753c.0566.0485.0988.102.0988.2647h2c0-.6906-.2565-1.3198-.7972-1.7833l-1.3016 1.5186Zm.0988.2647c0 .1115-.0244.146-.0286.1521-.0063.0094-.0414.0582-.1741.1166l.8054 1.8306c.4007-.1763.7656-.4422 1.0259-.8274.2625-.3886.3714-.8287.3714-1.2719h-2Zm-.1867.2618-11.29595 4.736.77331 1.8444 11.29604-4.736-.7734-1.8444ZM7.92535 34.7702l11.29595 4.736.7734-1.8444-11.29604-4.736-.77331 1.8444ZM54.779 20.856l-.727.6866.0098.0104.0101.0101.7071-.7071Zm.032 21.824-.7071-.7071.7071.7071Zm-2.656 0 .7295-.6839-.7295.6839Zm-.48-14.592h1l-1.8843-.4669.8843.4669Zm-5.44 10.304.878.4789.0063-.012-.8843-.4669Zm-.832 1.056.5812.8137.0186-.0133.018-.0141-.6178-.7863Zm-2.112 0 .5812-.8137-.5812.8137Zm-.832-1.056.8867-.4626-.0066-.0122-.8801.4748Zm-5.472-10.144.8801-.4748-1.8801.4748h1Zm-.512 14.432-.7282-.6854-.0013.0015.7295.6839Zm-2.624 0 .7295-.6839-.7295.6839Zm.032-21.824-.727-.6866-.0012.0012.7282.6854Zm3.392.8-.8903.4555.0048.0092.8855-.4647Zm7.104 13.536-.8855.4647.8875 1.691.8843-1.6926-.8863-.4631Zm7.072-13.536.8864.4631.0038-.0076-.8902-.4555Zm1.888-.376c.3618 0 .5648.1057.713.2626l1.454-1.3732c-.5771-.6111-1.3342-.8894-2.167-.8894v2Zm.7329.2831c.1375.1375.2511.353.2511.7649h2c0-.8254-.249-1.5913-.8369-2.1791l-1.4142 1.4142Zm.2511.7649v18.944h2V22.328h-2Zm0 18.944c0 .3989-.1077.5895-.2191.7009l1.4142 1.4142c.5713-.5713.8049-1.3193.8049-2.1151h-2Zm-.2191.7009c-.1255.1255-.3046.2191-.6369.2191v2c.777 0 1.4939-.2477 2.0511-.8049l-1.4142-1.4142Zm-.6369.2191c-.3339 0-.4865-.0936-.5825-.1959l-1.459 1.3678c.544.5803 1.2661.8281 2.0415.8281v-2Zm-.5825-.1959c-.102-.1089-.2095-.3078-.2095-.7241h-2c0 .7784.2125 1.5181.7505 2.0919l1.459-1.3678Zm-.2095-.7241V28.088h-2v13.184h2Zm-1.8843-13.6509-5.44 10.304 1.7686.9338 5.44-10.304-1.7686-.9338Zm-5.4336 10.292c-.2156.3954-.414.6245-.5719.7486l1.2356 1.5726c.4394-.3452.7957-.8201 1.0921-1.3634l-1.7558-.9578Zm-.5353.7212c-.1114.0795-.2551.1337-.4748.1337v2c.591 0 1.1513-.1592 1.6372-.5063l-1.1624-1.6274Zm-.4748.1337c-.2197 0-.3633-.0542-.4748-.1337l-1.1624 1.6274c.4859.3471 1.0462.5063 1.6372.5063v-2Zm-.4748-.1337c-.1221-.0873-.3096-.2889-.5266-.7049l-1.7732.9252c.295.5653.6622 1.0677 1.1374 1.4071l1.1624-1.6274Zm-.5331-.7171-5.472-10.144-1.7602.9496 5.472 10.144 1.7602-.9496ZM35.987 28.248v13.024h2V28.248h-2Zm0 13.024c0 .364-.1007.5744-.2402.7226l1.4564 1.3708c.5432-.5772.7838-1.3054.7838-2.0934h-2Zm-.2415.7241c-.096.1023-.2486.1959-.5825.1959v2c.7754 0 1.4975-.2478 2.0415-.8281l-1.459-1.3678Zm-.5825.1959c-.3339 0-.4865-.0936-.5825-.1959l-1.459 1.3678c.544.5803 1.2661.8281 2.0415.8281v-2Zm-.5825-.1959c-.102-.1089-.2095-.3078-.2095-.7241h-2c0 .7784.2125 1.5181.7505 2.0919l1.459-1.3678Zm-.2095-.7241V22.328h-2v18.944h2Zm0-18.944c0-.4286.1133-.6518.2402-.7866l-1.4564-1.3708c-.5557.5905-.7838 1.3487-.7838 2.1574h2Zm.239-.7854c.1482-.1569.3512-.2626.713-.2626v-2c-.8328 0-1.5899.2783-2.167.8894l1.454 1.3732Zm.713-.2626c.3603 0 .7147.1531 1.0618.8315l1.7804-.911c-.5915-1.1562-1.5385-1.9205-2.8422-1.9205v2Zm1.0665.8407 7.104 13.536 1.771-.9294-7.104-13.536-1.771.9294Zm8.8758 13.5344 7.072-13.536-1.7726-.9262-7.072 13.536 1.7726.9262Zm7.0759-13.5436c.3597-.7029.7018-.8315.9978-.8315v-2c-1.2827 0-2.1992.7888-2.7782 1.9205l1.7804.911ZM71.4772 28.6l-.7211.6928.007.0072.007.0071.7071-.7071Zm1.088 14.08.684.7295.0118-.011.0114-.0114-.7072-.7071Zm-2.784-.032-.7071.7071.0108.0107.011.0104.6853-.7282Zm-.512-2.048h1l-1.9166-.3996.9166.3996Zm-1.7279 1.952-.5112-.8596-.0103.0063.5215.8533Zm-5.5361.064-.4472.8944.4472-.8944Zm-2.0159-1.76-.8358.5492.8358-.5492Zm.1279-5.216-.7421-.6703-.006.0067-.0059.0068.754.6568Zm2.88-1.44-.2202-.9754.2202.9754Zm6.272-.448v1h1v-1h-1Zm-.6719-3.008-.7385.6743.0074.0082.0077.008.7234-.6905Zm-4.0641-.448.2577.9662.0149-.0039.0148-.0045-.2874-.9578Zm-2.272.768-.3635-.9316-.0427.0167-.041.0205.4472.8944Zm-2.1759 0-.7634.6459.0139.0165.0146.0159.7349-.6783Zm-.096-2.016-.8222-.5692-.005.0072-.0049.0073.8321.5547Zm.928-.768-.4771-.8789-.0049.0027.482.8762Zm2.6559-.96-.219-.9757-.0043.001.2233.9747Zm4.6721 12-.7282-.6854-.0007.0007.7289.6847Zm1.0239-3.456h1v-1h-1v1Zm-3.904.192.1601.9871-.1601-.9871Zm-1.6959.672.6839.7295-.6839-.7295Zm.192 3.008-.6905.7234.0168.016.0175.0152.6562-.7546Zm2.7839-11.768c2.0254 0 3.3244.5062 4.1109 1.3248l1.4423-1.3856c-1.3042-1.3574-3.2265-1.9392-5.5532-1.9392v2Zm4.1249 1.3391c.8081.8081 1.3071 2.1357 1.3071 4.1889h2c0-2.3415-.5676-4.2778-1.8928-5.6031l-1.4143 1.4142Zm1.3071 4.1889v7.808h2v-7.808h-2Zm0 7.808c0 .3657-.1008.5507-.2191.6689l1.4143 1.4142c.5644-.5644.8048-1.2968.8048-2.0831h-2Zm-.1959.6465c-.1088.102-.3078.2095-.7241.2095v2c.7784 0 1.5181-.2125 2.092-.7505l-1.3679-1.459Zm-.7241.2095c-.3313 0-.5351-.0939-.6906-.2402l-1.3707 1.4564c.5698.5363 1.2834.7838 2.0613.7838v-2Zm-.6688-.2191c-.1256-.1255-.2192-.3046-.2192-.6369h-2c0 .777.2478 1.4939.8049 2.0511l1.4143-1.4142Zm-.2192-.6369V40.6h-2v.704h2Zm-1.9166-1.1036c-.278.6376-.7109 1.1284-1.3224 1.4921l1.0221 1.719c.9671-.575 1.6862-1.3855 2.1336-2.4119l-1.8333-.7992Zm-1.3328 1.4983c-.5903.3607-1.3006.5573-2.1666.5573v2c1.1821 0 2.2638-.2728 3.2095-.8507l-1.0429-1.7066Zm-2.1666.5573c-.9051 0-1.6992-.1836-2.4007-.5344l-.8945 1.7888c1.0051.5026 2.1098.7456 3.2952.7456v-2Zm-2.4007-.5344c-.7068-.3534-1.2403-.8254-1.6275-1.4148l-1.6715 1.0984c.5941.904 1.4046 1.6053 2.4045 2.1052l.8945-1.7888Zm-1.6275-1.4148c-.3805-.579-.5717-1.2191-.5717-1.9468h-2c0 1.107.2994 2.1308.9002 3.0452l1.6715-1.0984Zm-.5717-1.9468c0-.9876.2448-1.6347.618-2.0632l-1.5081-1.3136c-.7788.8941-1.1099 2.0604-1.1099 3.3768h2Zm.6061-2.0497c.404-.4473 1.1382-.8594 2.3581-1.1349l-.4405-1.9508c-1.4254.3218-2.6112.8697-3.4019 1.7451l1.4843 1.3406Zm2.3581-1.1349c1.217-.2748 2.956-.4234 5.2518-.4234v-2c-2.3549 0-4.264.15-5.6923.4726l.4405 1.9508Zm5.2518-.4234h.7999v-2h-.7999v2Zm1.7999-1v-.736h-2v.736h2Zm0-.736c0-1.1527-.2412-2.2214-.9486-2.9625l-1.4467 1.381c.1886.1976.3953.6436.3953 1.5815h2Zm-.9335-2.9463c-.7161-.7844-1.7738-1.0617-2.9145-1.0617v2c.8648 0 1.2577.2133 1.4376.4103l1.4769-1.3486Zm-2.9145-1.0617c-.7234 0-1.4495.1124-2.1753.3302l.5747 1.9156c.5542-.1662 1.0868-.2458 1.6006-.2458v-2Zm-2.1456.3218c-.6873.1832-1.4816.4529-2.3779.8026l.7271 1.8632c.8531-.3329 1.5734-.5753 2.1661-.7334l-.5153-1.9324Zm-2.4616.8398c-.2533.1267-.4502.2102-.5964.2602-.1588.0543-.2039.0502-.1724.0502v2c.2876 0 .5731-.0735.8197-.1578.2591-.0887.5423-.2131.8436-.3638l-.8945-1.7888Zm-.7688.3104c-.1104 0-.1622-.0261-.2251-.0943l-1.4697 1.3566c.4491.4864 1.0373.7377 1.6948.7377v-2Zm-.1966-.0619c-.0486-.0576-.1154-.1735-.1154-.4421h-2c0 .6274.168 1.2368.5887 1.7339l1.5267-1.2918Zm-.1154-.4421c0-.2013.0453-.3092.0881-.3733l-1.6641-1.1094c-.2986.4479-.424.9586-.424 1.4827h2Zm.0782-.3588c.0736-.1063.2409-.2702.5878-.461l-.9639-1.7524c-.5064.2785-.9578.6266-1.2682 1.075l1.6443 1.1384Zm.5829-.4583c.6507-.3532 1.4469-.6452 2.4023-.8642l-.4467-1.9494c-1.0926.2503-2.067.5984-2.9097 1.0558l.9541 1.7578Zm2.398-.8632c.9783-.2196 1.9288-.3277 2.8529-.3277v-2c-1.0811 0-2.1786.1266-3.291.3763l.4381 1.9514Zm1.861 13.0803c1.3108 0 2.4497-.444 3.3208-1.3713l-1.4577-1.3694c-.4515.4807-1.0406.7407-1.8631.7407v2Zm3.3201-1.3706c.8812-.9362 1.2958-2.1211 1.2958-3.4694h-2c0 .9131-.268 1.5842-.7521 2.0986l1.4563 1.3708Zm1.2958-3.4694v-.672h-2v.672h2Zm-1-1.672h-.5759v2h.5759v-2Zm-.5759 0c-1.4483 0-2.6201.0641-3.4881.2049l.3201 1.9742c.7106-.1152 1.7575-.1791 3.168-.1791v-2Zm-3.4881.2049c-.8618.1397-1.663.4075-2.2199.9296l1.3679 1.459c.1258-.1179.4553-.2981 1.1721-.4144l-.3201-1.9742Zm-2.2199.9296c-.5803.544-.8281 1.2661-.8281 2.0415h2c0-.3339.0936-.4865.196-.5825l-1.3679-1.459Zm-.8281 2.0415c0 .94.3353 1.7719 1.0136 2.4194l1.3809-1.4468c-.2604-.2485-.3945-.5472-.3945-.9726h-2Zm1.0479 2.4506c.6883.5985 1.5245.8854 2.4482.8854v-2c-.4844 0-.8428-.1398-1.1359-.3946l-1.3123 1.5092Zm22.0654-.2746-.0739.9974.014.0008.0599-.9982Zm.96 2.624.534.8456.011-.0072-.545-.8384Zm-1.76.32-.0739.9973.0092.0006.0092.0006.0555-.9985Zm-.864-.064.0739-.9973-.0027-.0002-.0712.9975Zm-5.376-12.736h1v-1h-1v1Zm-2.944-.384-.6508.7593.0129.011.0132.0106.6247-.7809Zm0-2.24-.6247-.7809-.0132.0106-.0129.011.6508.7593Zm2.944-.384v1h1v-1h-1Zm.544-4.32.6854.7282-.6854-.7282Zm2.912 0-.6854.7282.6854-.7282Zm.544 4.32h-1v1h1v-1Zm4.032.384-.6508.7593.0129.011.0132.0106.6247-.7809Zm0 2.24-.6247-.7809-.0132.0106-.0129.011.6508.7593Zm-4.032.384v-1h-1v1h1Zm2.176 9.792.0739-.9973h-.0006l-.0733.9973Zm.8041 1.0622c.4135.0248.5575.123.5909.1531.0056.005.069.0484.069.2887h2c0-.6557-.2032-1.3003-.731-1.7753-.4999-.4499-1.1559-.6237-1.8091-.6629l-.1198 1.9964Zm.6599.4418c0 .176-.0442.2541-.185.3456l1.09 1.6768c.7126-.4631 1.095-1.1744 1.095-2.0224h-2Zm-.174.3385c-.1521.0961-.4947.2046-1.1705.167l-.111 1.997c.8603.0477 1.6909-.0571 2.3495-.473l-1.068-1.691Zm-1.1521.1682-.864-.064-.1478 1.9946.864.064.1478-1.9946Zm-.8667-.0642c-1.634-.1167-2.7034-.6003-3.3721-1.3168-.6685-.7162-1.0751-1.8133-1.0751-3.4457h-2c0 1.9516.4894 3.6065 1.6129 4.8103 1.1233 1.2035 2.7419 1.8079 4.6919 1.9472l.1424-1.995Zm-4.4472-4.7625V30.36h-2v6.976h2Zm-1-7.976h-1.6v2h1.6v-2Zm-1.6 0c-.4394 0-.6363-.0984-.7193-.1649l-1.2494 1.5618c.557.4455 1.2561.6031 1.9687.6031v-2Zm-.6932-.1433c-.0238-.0203-.0988-.0837-.0988-.3607h-2c0 .7043.2237 1.3876.7972 1.8793l1.3016-1.5186Zm-.0988-.3607c0-.277.075-.3404.0988-.3607l-1.3016-1.5186c-.5735.4917-.7972 1.175-.7972 1.8793h2Zm.0727-.3391c.083-.0665.2799-.1649.7193-.1649v-2c-.7126 0-1.4117.1576-1.9687.6031l1.2494 1.5618Zm.7193-.1649h1.6v-2h-1.6v2Zm2.6-1v-2.944h-2v2.944h2Zm0-2.944c0-.3475.0994-.5255.2294-.6478l-1.3708-1.4564c-.5954.5604-.8586 1.2997-.8586 2.1042h2Zm.2294-.6478c.1348-.1269.358-.2402.7866-.2402v-2c-.8087 0-1.5669.2281-2.1574.7838l1.3708 1.4564Zm.7866-.2402c.3965 0 .6133.1072.7546.2402l1.3708-1.4564c-.584-.5496-1.3272-.7838-2.1254-.7838v2Zm.7546.2402c.13.1223.2294.3003.2294.6478h2c0-.8045-.2632-1.5438-.8586-2.1042l-1.3708 1.4564Zm.2294.6478v2.944h2v-2.944h-2Zm1 3.944h2.72v-2h-2.72v2Zm2.72 0c.4454 0 .6118.1009.6612.1433l1.3016-1.5186c-.5479-.4696-1.2562-.6247-1.9628-.6247v2Zm.6873.1649c.0352.0281.1047.0856.1047.3391h2c0-.7278-.2505-1.417-.8553-1.9009l-1.2494 1.5618Zm.1047.3391c0 .2535-.0695.311-.1047.3391l1.2494 1.5618c.6048-.4839.8553-1.1731.8553-1.9009h-2Zm-.1308.3607c-.0494.0424-.2158.1433-.6612.1433v2c.7066 0 1.4149-.1551 1.9628-.6247l-1.3016-1.5186Zm-.6612.1433h-2.72v2h2.72v-2Zm-3.72 1v7.264h2V30.36h-2Zm0 7.264c0 .9295.2128 1.8023.7861 2.4684.5846.6791 1.4113.9903 2.3166 1.0569l.1466-1.9946c-.5453-.0401-.8067-.2036-.9474-.3671-.152-.1766-.3019-.5144-.3019-1.1636h-2Zm3.1021 3.5253.864.064.1478-1.9946-.864-.064-.1478 1.9946ZM103.067 42.68l-.685-.7282-.011.0104-.011.0107.707.7071Zm-2.912 0 .685-.7282-.685.7282Zm-1.248-11.744-.7657.6432.0139.0166.0146.0159.7372-.6757Zm-4.928.288-.7176-.6965-.0053.0055-.0053.0056.7282.6854ZM92.411 42.68l-.6854-.7282.6854.7282Zm-2.944 0-.7071.7071.0107.0107.011.0104.6854-.7282Zm.032-21.888-.6644-.7474-.0106.0094-.0104.0098.6854.7282Zm2.912-.032.6616-.7498-.6616.7498Zm.544 8.768h-1v3.413l1.8419-2.8733-.8419-.5397Zm2.112-1.888.4384.8988.0088-.0044-.4472-.8944Zm3.04.328c1.6363 0 2.694.4707 3.368 1.2582.7.8172 1.136 2.1491 1.136 4.1738h2c0-2.2633-.481-4.1474-1.616-5.4742-1.161-1.3565-2.855-1.9578-4.888-1.9578v2Zm4.504 5.432v7.872h2V33.4h-2Zm0 7.872c0 .381-.107.5646-.229.6798l1.37 1.4564c.603-.5675.859-1.3226.859-2.1362h-2Zm-.251.7009c-.105.1049-.301.2191-.733.2191v2c.806 0 1.569-.2271 2.147-.8049l-1.414-1.4142Zm-.733.2191c-.429 0-.652-.1133-.787-.2402l-1.3704 1.4564c.5904.5557 1.3484.7838 2.1574.7838v-2Zm-.787-.2402c-.122-.1152-.229-.2988-.229-.6798h-2c0 .8136.2557 1.5687.8586 2.1362l1.3704-1.4564Zm-.229-.6798V33.4h-2v7.872h2Zm0-7.872c0-1.2327-.25-2.3573-.9668-3.1397l-1.4744 1.3514c.2215.2416.4412.7596.4412 1.7883h2Zm-.9383-3.1072c-.7063-.8408-1.7588-1.1568-2.9097-1.1568v2c.8117 0 1.1886.2173 1.3783.4432l1.5314-1.2864ZM96.763 29.136c-1.3811 0-2.5823.4444-3.5016 1.3915l1.4352 1.393c.4887-.5036 1.1435-.7845 2.0664-.7845v-2Zm-3.5122 1.4026c-.8941.95-1.2958 2.186-1.2958 3.5974h2c0-1.0206.2809-1.7259.7522-2.2266l-1.4564-1.3708ZM91.955 34.136v7.136h2v-7.136h-2Zm0 7.136c0 .381-.107.5646-.2294.6798l1.3708 1.4564c.6029-.5675.8586-1.3226.8586-2.1362h-2Zm-.2294.6798c-.1348.1269-.358.2402-.7866.2402v2c.8087 0 1.5669-.2281 2.1574-.7838l-1.3708-1.4564Zm-.7866.2402c-.4286 0-.6518-.1133-.7866-.2402l-1.3708 1.4564c.5905.5557 1.3487.7838 2.1574.7838v-2Zm-.7649-.2191c-.1114-.1114-.2191-.302-.2191-.7009h-2c0 .7958.2336 1.5438.8049 2.1151l1.4142-1.4142Zm-.2191-.7009V22.136h-2v19.136h2Zm0-19.136c0-.3136.0914-.486.2294-.6158l-1.3708-1.4564c-.5873.5528-.8586 1.2765-.8586 2.0722h2Zm.2084-.5966c.1716-.1525.4129-.2594.8076-.2594v-2c-.7999 0-1.54.2345-2.1364.7646l1.3288 1.4948Zm.8076-.2594c.4133 0 .6386.1065.7784.2298l1.3232-1.4996c-.5856-.5167-1.3202-.7302-2.1016-.7302v2Zm.7784.2298c.1148.1014.2056.2478.2056.5622h2c0-.7949-.2719-1.5232-.8824-2.0618l-1.3232 1.4996Zm.2056.5622v7.456h2v-7.456h-2Zm1.8419 7.9957c.4359-.6801 1.0014-1.184 1.7085-1.5289l-.8768-1.7976c-1.0422.5084-1.8848 1.2632-2.5155 2.2471l1.6838 1.0794Zm1.7173-1.5333c.7402-.3701 1.5972-.5664 2.5928-.5664v-2c-1.2658 0-2.4354.2517-3.4872.7776l.8944 1.7888ZM120.922 39.128l-.793.6097.014.0185.015.0177.764-.6459Zm-.832 2.784.488.873.005-.0033-.493-.8697Zm-2.464.992.248.9688.01-.0027.011-.0029-.269-.9632Zm-8.608-1.824-.702.7122.702-.7122Zm1.44-13.088-.503-.8644-.007.0041.51.8603Zm7.648-.096.509-.8606-.509.8606Zm2.432 2.624-.891.4539.891-.4539Zm-9.792 5.376v-1h-1.091l.095 1.0866.996-.0866Zm1.248 3.264-.707.7071.005.0054.006.0054.696-.7179Zm4.864.768-.305-.9525-.011.0038.316.9487Zm1.792-.704.411.9114.03-.0136.029-.0154-.47-.8824Zm-6.752-8.416-.718-.6958-.006.0059-.006.006.73.6839Zm-1.152 2.944-.995-.0995-.11 1.0995h1.105v-1Zm7.232 0v1h1.033l-.034-1.0328-.999.0328Zm-.96-2.944-.753.6585.005.0059.006.0059.742-.6703Zm3.04 8.904c.027 0 .042.0026.049.004.007.0014.008.0023.005.001s-.004-.0024-.003-.0014c.002.0012.009.0073.02.0221l1.585-1.2194c-.41-.5337-.996-.8063-1.656-.8063v2Zm.1.0619c.042.0495.116.1709.116.4741h2c0-.6355-.161-1.2608-.589-1.7659l-1.527 1.2918Zm.116.4741c0 .172-.07.4492-.678.7943l.987 1.7394c.971-.5509 1.691-1.383 1.691-2.5337h-2Zm-.672.7911c-.647.3615-1.393.664-2.245.9017l.538 1.9264c.982-.2743 1.879-.6331 2.683-1.0823l-.976-1.7458Zm-2.224.8961c-.847.2167-1.638.3208-2.376.3208v2c.926 0 1.884-.1306 2.872-.3832l-.496-1.9376Zm-2.376.3208c-2.316 0-4.037-.6607-5.282-1.8882l-1.404 1.4244c1.698 1.6738 3.967 2.4638 6.686 2.4638v-2Zm-5.282-1.8882c-1.241-1.2231-1.91-2.9279-1.91-5.2398h-2c0 2.7227.803 4.986 2.506 6.6642l1.404-1.4244Zm-1.91-5.2398c0-1.464.292-2.721.848-3.7966l-1.776-.9188c-.724 1.3991-1.072 2.9794-1.072 4.7154h2Zm.848-3.7966c.558-1.0779 1.325-1.8959 2.31-2.4791l-1.02-1.7206c-1.32.7822-2.344 1.8842-3.066 3.2809l1.776.9188Zm2.303-2.4751c1.008-.5863 2.154-.8883 3.465-.8883v-2c-1.634 0-3.132.3807-4.471 1.1597l1.006 1.7286Zm3.465-.8883c1.257 0 2.302.2749 3.17.7886l1.019-1.7212c-1.223-.7236-2.631-1.0674-4.189-1.0674v2Zm3.17.7886c.875.5176 1.557 1.2477 2.051 2.2173l1.782-.9078c-.658-1.2918-1.598-2.311-2.814-3.0307l-1.019 1.7212Zm2.051 2.2173c.491.9635.755 2.1351.755 3.5461h2c0-1.661-.312-3.1561-.973-4.4539l-1.782.9078Zm.755 3.5461c0 .3328-.076.3957-.054.3698.014-.0149.026-.0189.017-.0155-.015.0058-.068.0217-.179.0217v2c.593 0 1.212-.1737 1.661-.6818.428-.4846.555-1.1097.555-1.6942h-2Zm-.216.376h-9.44v2h9.44v-2Zm-10.436 1.0866c.138 1.5966.602 2.95 1.537 3.8845l1.414-1.4142c-.474-.4735-.842-1.2961-.959-2.6435l-1.992.1732Zm1.548 3.8953c.95.922 2.262 1.3061 3.768 1.3061v-2c-1.182 0-1.919-.2985-2.376-.7419l-1.392 1.4358Zm3.768 1.3061c.763 0 1.471-.095 2.108-.3073l-.632-1.8974c-.388.1291-.874.2047-1.476.2047v2Zm2.097-.3036c.578-.1851 1.212-.435 1.898-.745l-.823-1.8228c-.636.2873-1.197.5068-1.685.663l.61 1.9048Zm1.957-.774c.296-.1575.528-.2628.703-.3266.189-.0686.254-.0678.235-.0678v-2c-.319 0-.637.0861-.918.1882-.294.1068-.616.2576-.961.4414l.941 1.7648Zm-4.598-11.3224c-1.316 0-2.465.4224-3.342 1.3282l1.436 1.3916c.445-.4595 1.046-.7198 1.906-.7198v-2Zm-3.354 1.3401c-.837.8935-1.275 2.1104-1.417 3.5284l1.99.199c.114-1.142.444-1.8878.886-2.3596l-1.459-1.3678Zm-.422 4.6279h7.232v-2h-7.232v2Zm8.231-1.0328c-.047-1.4314-.402-2.6794-1.217-3.5815l-1.484 1.3406c.38.4206.664 1.1352.702 2.3065l1.999-.0656Zm-1.207-3.5697c-.821-.9384-1.949-1.3655-3.248-1.3655v2c.834 0 1.37.2556 1.743.6825l1.505-1.317Zm20.728-2.6055.685-.7282-.685.7282Zm-.032 15.136-.665-.7474-.01.0094-.011.0098.686.7282Zm-2.816.032.684-.7295-.684.7295Zm-.512-2.112h1v-3.7453l-1.867 3.2468.867.4985Zm-1.984 1.984.474.8805.009-.0047.008-.0048-.491-.871Zm-8.032-15.04.685.7282-.685-.7282Zm2.912 0-.686.7282.686-.7282Zm1.216 11.744-.766.6432.766-.6432Zm4.768-.288-.738-.6748-.001.001.739.6738Zm3.008-10.968c.428 0 .652.1133.786.2402l1.371-1.4564c-.59-.5557-1.349-.7838-2.157-.7838v2Zm.786.2402c.13.1223.23.3003.23.6478h2c0-.8045-.263-1.5438-.859-2.1042l-1.371 1.4564Zm.23.6478v12.416h2V28.92h-2Zm0 12.416c0 .2946-.089.4614-.241.5966l1.329 1.4948c.616-.5475.912-1.2767.912-2.0914h-2Zm-.262.6158c-.141.133-.358.2402-.754.2402v2c.798 0 1.541-.2342 2.125-.7838l-1.371-1.4564Zm-.754.2402c-.384 0-.577-.1014-.692-.2095l-1.368 1.459c.567.5319 1.291.7505 2.06.7505v-2Zm-.692-.2095c-.103-.096-.196-.2486-.196-.5825h-2c0 .7754.248 1.4975.828 2.0415l1.368-1.459Zm-.196-.5825v-.8h-2v.8h2Zm-1.867-1.2985c-.404.7027-.938 1.2332-1.609 1.6115l.983 1.742c.993-.5603 1.782-1.3525 2.36-2.3565l-1.734-.997Zm-1.591 1.602c-.672.3615-1.444.5525-2.342.5525v2c1.193 0 2.297-.257 3.29-.7915l-.948-1.761Zm-2.342.5525c-1.734 0-2.861-.4812-3.574-1.2813-.732-.822-1.186-2.1556-1.186-4.1827h-2c0 2.2822.506 4.1806 1.693 5.5133 1.207 1.3546 2.961 1.9507 5.067 1.9507v-2Zm-4.76-5.464V28.92h-2v7.872h2Zm0-7.872c0-.3475.099-.5255.229-.6478l-1.371-1.4564c-.595.5604-.858 1.2997-.858 2.1042h2Zm.229-.6478c.141-.133.358-.2402.755-.2402v-2c-.798 0-1.542.2342-2.126.7838l1.371 1.4564Zm.755-.2402c.428 0 .652.1133.786.2402l1.371-1.4564c-.59-.5557-1.349-.7838-2.157-.7838v2Zm.786.2402c.13.1223.23.3003.23.6478h2c0-.8045-.263-1.5438-.859-2.1042l-1.371 1.4564Zm.23.6478v7.904h2V28.92h-2Zm0 7.904c0 1.2134.24 2.3138.906 3.1072l1.531-1.2864c-.229-.2733-.437-.8156-.437-1.8208h-2Zm.906 3.1072c.702.8362 1.74 1.1568 2.878 1.1568v-2c-.782 0-1.153-.2127-1.347-.4432l-1.531 1.2864Zm2.878 1.1568c1.35 0 2.518-.4529 3.395-1.4142l-1.478-1.3476c-.446.4894-1.049.7618-1.917.7618v2Zm3.394-1.4132c.884-.9669 1.286-2.2063 1.286-3.6188h-2c0 1.0195-.281 1.7427-.762 2.2692l1.476 1.3496Zm1.286-3.6188V28.92h-2v7.136h2Zm0-7.136c0-.3475.099-.5255.229-.6478l-1.371-1.4564c-.595.5604-.858 1.2997-.858 2.1042h2Zm.229-.6478c.141-.133.358-.2402.755-.2402v-2c-.798 0-1.542.2342-2.126.7838l1.371 1.4564Zm6.966 13.6078.54-.8416-.015-.0094-.014-.0089-.511.8599Zm-.672-2.752.737.6757.014-.0146.012-.0152-.763-.6459Zm2.368.096-.471.8824.023.0121.024.011.424-.9055Zm1.856.736-.294.9558.01.003.284-.9588Zm4.256-.192-.504-.8638-.008.0047-.008.0049.52.8542Zm.448-2.112-.743.669.017.0195.019.0186.707-.7071Zm-1.088-.576-.351.9363.023.0086.023.0075.305-.9524Zm-2.368-.64.215-.9766-.008-.0019-.009-.0017-.198.9802Zm-4.096-1.632-.656.7551.01.0083.646-.7634Zm-.384-5.44.803.5964.008-.0109-.811-.5855Zm2.272-1.76.389.9213.01-.0042-.399-.9171Zm5.92-.288-.271.9624.011.0033.012.003.248-.9687Zm2.24.96-.542.8403.006.0039.006.0038.53-.848Zm.672 2.784.763.6459.012-.0138.011-.0143-.786-.6178Zm-1.568.288-.447.8944.051.0257.054.0197.342-.9398Zm-.832-.448.49-.8716-.015-.0086-.016-.008-.459.8882Zm-1.6-.704-.356.9345.02.0075.02.0067.316-.9487Zm-3.552.224-.563-.8262-.009.0061-.009.0064.581.8137Zm.032 2.528-.509.8609.509-.8609Zm2.72.832.205-.9789-.003-.0005-.202.9794Zm3.36 1.024.428-.9037-.428.9037Zm1.728 1.44-.86.5098.007.0116.007.0114.846-.5328Zm-1.28 5.696-.584-.8118-.007.0049.591.8069Zm-4.8.312c-2.202 0-3.873-.4353-5.092-1.2176l-1.08 1.6832c1.64 1.0523 3.724 1.5344 6.172 1.5344v-2Zm-5.121-1.2359c-.403-.239-.535-.5007-.535-.8681h-2c0 1.126.551 2.0162 1.513 2.5879l1.022-1.7198Zm-.535-.8681c0-.2364.06-.3166.089-.3483l-1.474-1.3514c-.44.4803-.615 1.0828-.615 1.6997h2Zm.115-.3781c.039-.046.062-.0563.063-.0569.002-.0008.003-.0016.007-.0024.004-.0009.014-.0026.031-.0026v-2c-.656 0-1.217.2846-1.627.7701l1.526 1.2918Zm.101-.0619c.103 0 .421.0676 1.033.3944l.942-1.7648c-.668-.3559-1.353-.6296-1.975-.6296v2Zm1.08.4175c.713.3342 1.376.5986 1.986.7863l.588-1.9116c-.499-.1536-1.073-.3799-1.726-.6857l-.848 1.811Zm1.996.7893c.7.2073 1.529.2972 2.46.2972v-2c-.818 0-1.44-.0808-1.892-.2148l-.568 1.9176Zm2.46.2972c.985 0 1.888-.1605 2.6-.5938l-1.04-1.7084c-.269.164-.753.3022-1.56.3022v2Zm2.584-.5842c.778-.4538 1.264-1.1775 1.264-2.1118h-2c0 .1323-.026.2407-.272.3842l1.008 1.7276Zm1.264-2.1118c0-.5706-.175-1.1333-.613-1.5711l-1.414 1.4142c.003.0029.005.0049.009.0162.006.0148.018.0569.018.1407h2Zm-.577-1.533c-.378-.4198-.957-.6772-1.526-.8594l-.61 1.9048c.229.0734.395.143.509.2034.119.0627.149.0985.141.0892l1.486-1.338Zm-1.48-.8433c-.581-.218-1.427-.4434-2.504-.6803l-.43 1.9532c1.057.2325 1.789.4337 2.232.5997l.702-1.8726Zm-2.521-.6839c-1.844-.3729-3.009-.8748-3.648-1.4152l-1.292 1.5268c1.025.8676 2.59 1.4537 4.544 1.8488l.396-1.9604Zm-3.638-1.4068c-.558-.4842-.872-1.1604-.872-2.157h-2c0 1.478.496 2.7432 1.56 3.667l1.312-1.51Zm-.872-2.157c0-.726.209-1.3591.635-1.9317l-1.606-1.1926c-.684.9208-1.029 1.973-1.029 3.1243h2Zm.643-1.9425c.437-.605 1.041-1.0828 1.85-1.4243l-.778-1.8424c-1.111.4691-2.021 1.1647-2.694 2.0957l1.622 1.171Zm1.86-1.4284c.837-.3641 1.808-.5571 2.929-.5571v-2c-1.353 0-2.601.2337-3.727.7229l.798 1.8342Zm2.929-.5571c.808 0 1.58.1056 2.321.3144l.542-1.9249c-.923-.2604-1.879-.3895-2.863-.3895v2Zm2.344.3207c.737.189 1.383.4683 1.946.8316l1.084-1.6806c-.759-.4901-1.607-.8507-2.534-1.0884l-.496 1.9374Zm1.958.8393c.44.2749.554.5434.554.848h2c0-1.1034-.568-1.9656-1.494-2.544l-1.06 1.696Zm.554.848c0 .2318-.059.3693-.138.4702l1.572 1.2356c.39-.4965.566-1.0842.566-1.7058h-2Zm-.115.4421c-.039.046-.062.0563-.063.0569-.002.0008-.003.0016-.007.0024-.004.0009-.014.0026-.031.0026v2c.656 0 1.217-.2846 1.627-.7701l-1.526-1.2918Zm-.101.0619c-.111 0-.23-.0197-.362-.0678l-.684 1.8796c.337.1226.687.1882 1.046.1882v-2Zm-.257-.0224c-.192-.0963-.454-.2368-.789-.4252l-.98 1.7432c.348.1956.641.3538.875.4708l.894-1.7888Zm-.82-.4418c-.645-.3338-1.228-.593-1.743-.7645l-.632 1.8974c.381.1272.865.3373 1.457.6435l.918-1.7764Zm-1.703-.7503c-.596-.227-1.28-.3215-2.02-.3215v2c.583 0 1.008.0762 1.308.1905l.712-1.869Zm-2.02-.3215c-.915 0-1.763.1843-2.451.6538l1.126 1.6524c.25-.1705.661-.3062 1.325-.3062v-2Zm-2.469.6663c-.713.5093-1.091 1.251-1.091 2.1257h2c0-.2346.07-.3676.253-.4983l-1.162-1.6274Zm-1.091 2.1257c0 .8965.43 1.6246 1.195 2.0769l1.018-1.7218c-.173-.1024-.213-.185-.213-.3551h-2Zm1.195 2.0769c.63.3722 1.69.6746 3.027.9505l.404-1.9588c-1.351-.2788-2.104-.531-2.413-.7135l-1.018 1.7218Zm3.024.95c1.394.2912 2.428.613 3.137.9488l.856-1.8074c-.912-.4322-2.119-.7931-3.583-1.0992l-.41 1.9578Zm3.137.9488c.69.3271 1.085.6909 1.296 1.0461l1.72-1.0196c-.472-.7968-1.229-1.393-2.16-1.8339l-.856 1.8074Zm1.31 1.0691c.235.3734.39.9094.39 1.6752h2c0-1.0262-.208-1.9622-.698-2.7408l-1.692 1.0656Zm.39 1.6752c0 1.1167-.443 1.9822-1.408 2.6762l1.168 1.6236c1.467-1.0553 2.24-2.5151 2.24-4.2998h-2Zm-1.415 2.6811c-.972.7115-2.342 1.1189-4.209 1.1189v2c2.144 0 3.973-.4673 5.391-1.5051l-1.182-1.6138Z" fill="#000"/></g><defs><filter id="a" x="157.432" y="18.616" width="177.445" height="34.6559" filterUnits="userSpaceOnUse" color-interpolation-filters="sRGB"><feFlood flood-opacity="0" result="BackgroundImageFix"/><feColorMatrix in="SourceAlpha" values="0 0 0 0 0 0 0 0 0 0 0 0 0 0 0 0 0 0 127 0" result="hardAlpha"/><feOffset dy="4"/><feGaussianBlur stdDeviation="2"/><feComposite in2="hardAlpha" operator="out"/><feColorMatrix values="0 0 0 0 0 0 0 0 0 0 0 0 0 0 0 0 0 0 0.25 0"/><feBlend in2="BackgroundImageFix" result="effect1_dropShadow_3:16"/><feBlend in="SourceGraphic" in2="effect1_dropShadow_3:16" result="shape"/></filter><filter id="b" x=".791992" y="20.28" width="158.701" height="30.976" filterUnits="userSpaceOnUse" color-interpolation-filters="sRGB"><feFlood flood-opacity="0" result="BackgroundImageFix"/><feColorMatrix in="SourceAlpha" values="0 0 0 0 0 0 0 0 0 0 0 0 0 0 0 0 0 0 127 0" result="hardAlpha"/><feOffset dy="4"/><feGaussianBlur stdDeviation="2"/><feComposite in2="hardAlpha" operator="out"/><feColorMatrix values="0 0 0 0 0 0 0 0 0 0 0 0 0 0 0 0 0 0 0.25 0"/><feBlend in2="BackgroundImageFix" result="effect1_dropShadow_3:16"/><feBlend in="SourceGraphic" in2="effect1_dropShadow_3:16" result="shape"/></filter></defs></svg>