<svg width="41" height="27" viewBox="0 0 41 27" fill="none" xmlns="http://www.w3.org/2000/svg">
<path d="M38.0714 0H2.92857C2.15187 0 1.40697 0.275653 0.857759 0.766319C0.308545 1.25698 0 1.92247 0 2.61638V23.5474C0 24.2413 0.308545 24.9068 0.857759 25.3975C1.40697 25.8881 2.15187 26.1638 2.92857 26.1638H38.0714C38.8481 26.1638 39.593 25.8881 40.1422 25.3975C40.6915 24.9068 41 24.2413 41 23.5474V2.61638C41 1.92247 40.6915 1.25698 40.1422 0.766319C39.593 0.275653 38.8481 0 38.0714 0V0ZM34.85 2.61638L20.5 11.4859L6.15 2.61638H34.85ZM2.92857 23.5474V3.80683L19.6654 14.1546C19.9105 14.3065 20.2017 14.3879 20.5 14.3879C20.7983 14.3879 21.0895 14.3065 21.3346 14.1546L38.0714 3.80683V23.5474H2.92857Z" fill="black"/>
</svg>
